<svg width="204" height="35" viewBox="0 0 204 35" fill="none" xmlns="http://www.w3.org/2000/svg">
<path d="M157 10.6127V23.3737H159.969V13.7182L168.184 23.3737H171.712V10.6127H168.744V19.5365L161.07 10.6127H157Z" fill="#14142B"/>
<path d="M175.631 10.6127V23.3737H179.011V18.4478H186.498V16.2168H179.011V12.8258H187.767V10.6127H175.631Z" fill="#14142B"/>
<path d="M195.048 12.8436V23.3737H198.427V12.8436H203.487V10.6127H189.988V12.8436H195.048Z" fill="#14142B"/>
<path d="M15.4045 34.2677C15.3746 34.2677 15.3447 34.2902 15.3447 34.3276C15.3447 34.3575 15.3672 34.3874 15.4045 34.3874C15.4344 34.3874 15.4643 34.365 15.4643 34.3276C15.4569 34.2976 15.4344 34.2677 15.4045 34.2677Z" fill="#14142B"/>
<path d="M13.8037 33.7137C13.7363 33.7137 13.6914 33.7662 13.6914 33.8261C13.6914 33.8936 13.7438 33.946 13.8037 33.946C13.8711 33.946 13.916 33.8936 13.916 33.8261C13.916 33.7662 13.8636 33.7137 13.8037 33.7137Z" fill="#14142B"/>
<path d="M12.2638 32.9954C12.1666 32.9954 12.0918 33.0702 12.0918 33.1675C12.0918 33.2648 12.1666 33.3396 12.2638 33.3396C12.361 33.3396 12.4358 33.2648 12.4358 33.1675C12.4358 33.0702 12.361 32.9954 12.2638 32.9954Z" fill="#14142B"/>
<path d="M10.8053 32.1123C10.6782 32.1123 10.5735 32.2171 10.5735 32.3443C10.5735 32.4715 10.6782 32.5763 10.8053 32.5763C10.9324 32.5763 11.0371 32.4715 11.0371 32.3443C11.0371 32.2171 10.9324 32.1123 10.8053 32.1123Z" fill="#14142B"/>
<path d="M9.44398 31.0868C9.28695 31.0868 9.15234 31.214 9.15234 31.3712C9.15234 31.5283 9.27947 31.663 9.44398 31.663C9.60102 31.663 9.72814 31.5358 9.72814 31.3712C9.72814 31.214 9.60102 31.0868 9.44398 31.0868Z" fill="#14142B"/>
<path d="M8.18773 29.9196C8.00079 29.9196 7.84375 30.0767 7.84375 30.2638C7.84375 30.4584 8.00079 30.6081 8.18773 30.6081C8.38216 30.6081 8.53171 30.4509 8.53171 30.2638C8.53171 30.0692 8.38216 29.9196 8.18773 29.9196Z" fill="#14142B"/>
<path d="M7.05908 28.625C6.83474 28.625 6.65527 28.8046 6.65527 29.0291C6.65527 29.2536 6.83474 29.4333 7.05908 29.4333C7.28341 29.4333 7.46288 29.2536 7.46288 29.0291C7.46288 28.8046 7.27594 28.625 7.05908 28.625Z" fill="#14142B"/>
<path d="M6.06519 27.2175C5.81094 27.2175 5.60156 27.4271 5.60156 27.6815C5.60156 27.936 5.81094 28.1455 6.06519 28.1455C6.31944 28.1455 6.52882 27.936 6.52882 27.6815C6.52882 27.4271 6.31944 27.2175 6.06519 27.2175Z" fill="#14142B"/>
<path d="M5.76522 26.2146C5.76522 25.9302 5.53341 25.6982 5.24925 25.6982C4.96509 25.6982 4.73328 25.9302 4.73328 26.2146C4.73328 26.499 4.96509 26.731 5.24925 26.731C5.53341 26.7385 5.76522 26.5065 5.76522 26.2146Z" fill="#14142B"/>
<path d="M5.21214 24.6585C5.21214 24.3367 4.95041 24.0823 4.63634 24.0823C4.31479 24.0823 4.06055 24.3442 4.06055 24.6585C4.06055 24.9803 4.31479 25.2348 4.63634 25.2348C4.95041 25.2348 5.21214 24.9803 5.21214 24.6585Z" fill="#14142B"/>
<path d="M4.86792 23.034C4.86792 22.6822 4.58376 22.3978 4.2323 22.3978C3.88084 22.3978 3.59668 22.6822 3.59668 23.034C3.59668 23.3857 3.88084 23.6701 4.2323 23.6701C4.57628 23.6701 4.86792 23.3857 4.86792 23.034Z" fill="#14142B"/>
<path d="M4.73375 21.3728C4.73375 20.9911 4.42716 20.6768 4.04578 20.6768C3.66441 20.6768 3.35034 20.9836 3.35034 21.3728C3.35034 21.7544 3.66441 22.0613 4.04578 22.0613C4.42716 22.0613 4.73375 21.7544 4.73375 21.3728Z" fill="#14142B"/>
<path d="M4.07506 20.4448C4.48634 20.4448 4.82284 20.108 4.82284 19.6964C4.82284 19.2848 4.48634 18.948 4.07506 18.948C3.66377 18.948 3.32727 19.2848 3.32727 19.6964C3.31979 20.108 3.6563 20.4448 4.07506 20.4448Z" fill="#14142B"/>
<path d="M3.51538 18.0423C3.51538 18.4913 3.87432 18.8505 4.32299 18.8505C4.77166 18.8505 5.1306 18.4913 5.1306 18.0423C5.1306 17.5932 4.77166 17.234 4.32299 17.234C3.87432 17.234 3.51538 17.5932 3.51538 18.0423Z" fill="#14142B"/>
<path d="M27.7357 30.4128C27.7059 30.4128 27.6836 30.4352 27.6836 30.465C27.6836 30.4948 27.7059 30.5172 27.7357 30.5172C27.7655 30.5172 27.7878 30.4948 27.7878 30.465C27.7878 30.4352 27.7655 30.4128 27.7357 30.4128Z" fill="#14142B"/>
<path d="M26.2554 31.139C26.1953 31.139 26.1501 31.1842 26.1501 31.2368C26.1501 31.297 26.1953 31.3422 26.2554 31.3422C26.3155 31.3422 26.3606 31.297 26.3606 31.2368C26.3606 31.1842 26.3155 31.139 26.2554 31.139Z" fill="#14142B"/>
<path d="M24.6994 31.7081C24.6171 31.7081 24.5498 31.7755 24.5498 31.8578C24.5498 31.9401 24.6171 32.015 24.6994 32.015C24.7816 32.015 24.8489 31.9476 24.8489 31.8578C24.8564 31.7755 24.7816 31.7081 24.6994 31.7081Z" fill="#14142B"/>
<path d="M23.0916 32.105C22.9794 32.105 22.8896 32.1948 22.8896 32.307C22.8896 32.4193 22.9794 32.5091 23.0916 32.5091C23.2037 32.5091 23.2935 32.4193 23.2935 32.307C23.2935 32.2023 23.2037 32.105 23.0916 32.105Z" fill="#14142B"/>
<path d="M21.4396 32.3369C21.2975 32.3369 21.1853 32.4492 21.1853 32.5914C21.1853 32.7336 21.2975 32.8458 21.4396 32.8458C21.5816 32.8458 21.6938 32.7336 21.6938 32.5914C21.6938 32.4492 21.5816 32.3369 21.4396 32.3369Z" fill="#14142B"/>
<path d="M19.7705 32.3887C19.5985 32.3887 19.4639 32.5234 19.4639 32.6955C19.4639 32.8601 19.5985 33.0023 19.7705 33.0023C19.935 33.0023 20.0771 32.8676 20.0771 32.6955C20.0771 32.5234 19.935 32.3887 19.7705 32.3887Z" fill="#14142B"/>
<path d="M18.0972 32.269C17.9028 32.269 17.7383 32.4262 17.7383 32.6283C17.7383 32.8228 17.8953 32.9875 18.0972 32.9875C18.2916 32.9875 18.4562 32.8303 18.4562 32.6283C18.4562 32.4262 18.2916 32.269 18.0972 32.269Z" fill="#14142B"/>
<path d="M16.444 31.9619C16.2196 31.9619 16.0402 32.1415 16.0402 32.366C16.0402 32.5906 16.2196 32.7777 16.444 32.7777C16.6683 32.7777 16.8553 32.598 16.8553 32.366C16.8478 32.149 16.6683 31.9619 16.444 31.9619Z" fill="#14142B"/>
<path d="M14.8282 31.4532C14.574 31.4532 14.3721 31.6553 14.3721 31.9098C14.3721 32.1642 14.5814 32.3663 14.8282 32.3663C15.0825 32.3663 15.2844 32.1642 15.2844 31.9098C15.2918 31.6628 15.0825 31.4532 14.8282 31.4532Z" fill="#14142B"/>
<path d="M13.2963 30.7347C13.0122 30.7347 12.7878 30.9593 12.7878 31.2436C12.7878 31.528 13.0122 31.7525 13.2963 31.7525C13.573 31.7525 13.8048 31.5205 13.8048 31.2436C13.8048 30.9667 13.5805 30.7347 13.2963 30.7347Z" fill="#14142B"/>
<path d="M12.4215 30.3836C12.4215 30.0767 12.1672 29.8223 11.8606 29.8223C11.5541 29.8223 11.2998 30.0692 11.2998 30.3836C11.2998 30.6904 11.5541 30.9448 11.8606 30.9448C12.1672 30.9448 12.4215 30.6904 12.4215 30.3836Z" fill="#14142B"/>
<path d="M10.5518 28.7295C10.2153 28.7295 9.9386 29.0064 9.9386 29.3432C9.9386 29.6799 10.2153 29.9568 10.5518 29.9568C10.8883 29.9568 11.165 29.6799 11.165 29.3432C11.165 29.0064 10.8883 28.7295 10.5518 28.7295Z" fill="#14142B"/>
<path d="M9.39112 27.4722C9.0247 27.4722 8.72559 27.7715 8.72559 28.1382C8.72559 28.5049 9.0247 28.8043 9.39112 28.8043C9.75753 28.8043 10.0566 28.5049 10.0566 28.1382C10.0492 27.764 9.75753 27.4722 9.39112 27.4722Z" fill="#14142B"/>
<path d="M8.39863 27.5016C8.79496 27.5016 9.10903 27.1798 9.10903 26.7907C9.10903 26.394 8.78748 26.0797 8.39863 26.0797C8.0023 26.0797 7.68823 26.4015 7.68823 26.7907C7.68823 27.1798 8.0023 27.5016 8.39863 27.5016Z" fill="#14142B"/>
<path d="M8.3458 25.3239C8.3458 24.9048 8.00181 24.5605 7.58305 24.5605C7.16429 24.5605 6.82031 24.9048 6.82031 25.3239C6.82031 25.743 7.16429 26.0872 7.58305 26.0872C8.00929 26.0872 8.3458 25.743 8.3458 25.3239Z" fill="#14142B"/>
<path d="M33.7323 18.9558C33.71 18.9558 33.6876 18.9782 33.6876 19.0005C33.6876 19.0229 33.71 19.0452 33.7323 19.0452C33.7546 19.0452 33.777 19.0229 33.777 19.0005C33.777 18.9707 33.7546 18.9558 33.7323 18.9558Z" fill="#14142B"/>
<path d="M33.2317 20.505C33.1791 20.505 33.1415 20.5426 33.1415 20.5953C33.1415 20.648 33.1791 20.6856 33.2317 20.6856C33.2843 20.6856 33.3219 20.648 33.3219 20.5953C33.3219 20.5501 33.2843 20.505 33.2317 20.505Z" fill="#14142B"/>
<path d="M32.5731 22.0015C32.4983 22.0015 32.4385 22.0613 32.4385 22.1362C32.4385 22.211 32.4983 22.2709 32.5731 22.2709C32.6479 22.2709 32.7077 22.211 32.7077 22.1362C32.7077 22.0613 32.6479 22.0015 32.5731 22.0015Z" fill="#14142B"/>
<path d="M31.751 23.4156C31.6538 23.4156 31.5715 23.498 31.5715 23.5953C31.5715 23.7 31.6538 23.7749 31.751 23.7749C31.8482 23.7749 31.9305 23.6926 31.9305 23.5953C31.9305 23.498 31.8482 23.4156 31.751 23.4156Z" fill="#14142B"/>
<path d="M30.7797 24.7329C30.6525 24.7329 30.5479 24.8377 30.5479 24.9649C30.5479 25.0921 30.6525 25.1894 30.7797 25.1894C30.9068 25.1894 31.0115 25.0846 31.0115 24.9649C31.0115 24.8377 30.9068 24.7329 30.7797 24.7329Z" fill="#14142B"/>
<path d="M29.6719 25.9457C29.5224 25.9457 29.3953 26.0654 29.3953 26.2226C29.3953 26.3723 29.5149 26.4995 29.6719 26.4995C29.8215 26.4995 29.9486 26.3797 29.9486 26.2226C29.9486 26.0654 29.8215 25.9457 29.6719 25.9457Z" fill="#14142B"/>
<path d="M28.4383 27.0308C28.2663 27.0308 28.1243 27.173 28.1243 27.3526C28.1243 27.5322 28.2663 27.6744 28.4383 27.6744C28.6178 27.6744 28.7599 27.5322 28.7599 27.3526C28.7599 27.173 28.6178 27.0308 28.4383 27.0308Z" fill="#14142B"/>
<path d="M27.093 27.981C26.8911 27.981 26.7266 28.1456 26.7266 28.3477C26.7266 28.5497 26.8911 28.7144 27.093 28.7144C27.2949 28.7144 27.4594 28.5497 27.4594 28.3477C27.4594 28.1456 27.2949 27.981 27.093 27.981Z" fill="#14142B"/>
<path d="M25.6341 28.7518C25.4097 28.7518 25.2228 28.9389 25.2228 29.1634C25.2228 29.388 25.4097 29.5751 25.6341 29.5751C25.8584 29.5751 26.0453 29.388 26.0453 29.1634C26.0379 28.9314 25.8584 28.7518 25.6341 28.7518Z" fill="#14142B"/>
<path d="M24.0714 29.3206C23.8171 29.3206 23.6152 29.5226 23.6152 29.7771C23.6152 30.0315 23.8171 30.2336 24.0714 30.2336C24.3182 30.2336 24.5275 30.0315 24.5275 29.7771C24.5275 29.5226 24.3256 29.3206 24.0714 29.3206Z" fill="#14142B"/>
<path d="M22.4493 29.6798C22.1726 29.6798 21.9482 29.9043 21.9482 30.1812C21.9482 30.4581 22.1726 30.6826 22.4493 30.6826C22.7259 30.6826 22.9503 30.4581 22.9503 30.1812C22.9503 29.9043 22.7259 29.6798 22.4493 29.6798Z" fill="#14142B"/>
<path d="M20.7881 29.8223C20.489 29.8223 20.2422 30.0692 20.2422 30.3686C20.2422 30.6679 20.489 30.9149 20.7881 30.9149C21.0872 30.9149 21.334 30.6679 21.334 30.3686C21.334 30.0692 21.0872 29.8223 20.7881 29.8223Z" fill="#14142B"/>
<path d="M19.7038 30.3377C19.7038 30.0084 19.4421 29.7465 19.1131 29.7465C18.7841 29.7465 18.5223 30.0159 18.5223 30.3377C18.5223 30.667 18.7841 30.9289 19.1131 30.9289C19.4421 30.9289 19.7038 30.667 19.7038 30.3377Z" fill="#14142B"/>
<path d="M18.0964 30.0914C18.0964 29.7397 17.8123 29.4553 17.4608 29.4553C17.1094 29.4553 16.8252 29.7397 16.8252 30.0914C16.8252 30.4432 17.1094 30.7276 17.4608 30.7276C17.8123 30.7276 18.0964 30.4432 18.0964 30.0914Z" fill="#14142B"/>
<path d="M16.5339 29.6273C16.5339 29.2531 16.2273 28.9463 15.8459 28.9463C15.4646 28.9463 15.158 29.2531 15.158 29.6273C15.158 30.009 15.4646 30.3158 15.8459 30.3158C16.2273 30.3083 16.5339 30.0015 16.5339 29.6273Z" fill="#14142B"/>
<path d="M15.0448 28.9535C15.0448 28.5494 14.7157 28.2201 14.3119 28.2201C13.9081 28.2201 13.5791 28.5494 13.5791 28.9535C13.5791 29.3576 13.9081 29.6869 14.3119 29.6869C14.7157 29.6869 15.0448 29.3576 15.0448 28.9535Z" fill="#14142B"/>
<path d="M29.866 6.69671C29.8883 6.69671 29.9106 6.67436 29.9106 6.65201C29.9106 6.62965 29.8883 6.6073 29.866 6.6073C29.8436 6.6073 29.8213 6.62965 29.8213 6.65201C29.8213 6.68181 29.8436 6.69671 29.866 6.69671Z" fill="#14142B"/>
<path d="M30.6526 8.22464C30.7052 8.22464 30.7428 8.18702 30.7428 8.13435C30.7428 8.08169 30.7052 8.04407 30.6526 8.04407C30.5999 8.04407 30.5623 8.08921 30.5623 8.13435C30.5548 8.18702 30.5999 8.22464 30.6526 8.22464Z" fill="#14142B"/>
<path d="M31.2645 9.83277C31.3393 9.83277 31.3991 9.7729 31.3991 9.69806C31.3991 9.62323 31.3393 9.56335 31.2645 9.56335C31.1897 9.56335 31.1299 9.62323 31.1299 9.69806C31.1299 9.76542 31.1897 9.83277 31.2645 9.83277Z" fill="#14142B"/>
<path d="M31.7211 11.4866C31.8183 11.4866 31.9005 11.4043 31.9005 11.307C31.9005 11.2022 31.8183 11.1199 31.7211 11.1199C31.6164 11.1199 31.5416 11.2022 31.5416 11.307C31.5341 11.4043 31.6164 11.4866 31.7211 11.4866Z" fill="#14142B"/>
<path d="M31.7668 12.9606C31.7668 13.0879 31.8715 13.1852 31.9912 13.1852C32.1183 13.1852 32.223 13.0804 32.223 12.9606C32.223 12.8334 32.1183 12.7286 31.9912 12.7286C31.8715 12.7286 31.7668 12.8334 31.7668 12.9606Z" fill="#14142B"/>
<path d="M32.1029 14.3531C31.9533 14.3531 31.8262 14.4729 31.8262 14.6301C31.8262 14.7797 31.9458 14.8995 32.1029 14.8995C32.2524 14.8995 32.3795 14.7797 32.3795 14.6301C32.3721 14.4804 32.2524 14.3531 32.1029 14.3531Z" fill="#14142B"/>
<path d="M32.0276 15.9845C31.8556 15.9845 31.7061 16.1267 31.7061 16.3063C31.7061 16.4859 31.8481 16.6281 32.0276 16.6281C32.2071 16.6281 32.3491 16.4859 32.3491 16.3063C32.3491 16.1267 32.2071 15.9845 32.0276 15.9845Z" fill="#14142B"/>
<path d="M31.7805 17.5934C31.5786 17.5934 31.4141 17.758 31.4141 17.9601C31.4141 18.1622 31.5786 18.3268 31.7805 18.3268C31.9824 18.3268 32.1469 18.1622 32.1469 17.9601C32.1469 17.758 31.9824 17.5934 31.7805 17.5934Z" fill="#14142B"/>
<path d="M31.7287 19.5692C31.7287 19.3447 31.5492 19.1576 31.3174 19.1576C31.0931 19.1576 30.9061 19.3447 30.9061 19.5692C30.9061 19.7937 31.0931 19.9808 31.3174 19.9808C31.5492 19.9808 31.7287 19.7937 31.7287 19.5692Z" fill="#14142B"/>
<path d="M30.6516 20.6469C30.3973 20.6469 30.1954 20.8489 30.1954 21.1034C30.1954 21.3578 30.3973 21.5599 30.6516 21.5599C30.9058 21.5599 31.1077 21.3578 31.1077 21.1034C31.1077 20.8564 30.9058 20.6469 30.6516 20.6469Z" fill="#14142B"/>
<path d="M29.7919 22.0392C29.5152 22.0392 29.2909 22.2637 29.2909 22.5406C29.2909 22.8175 29.5152 23.042 29.7919 23.042C30.0686 23.042 30.2929 22.8175 30.2929 22.5406C30.2929 22.2637 30.0686 22.0392 29.7919 22.0392Z" fill="#14142B"/>
<path d="M28.7461 23.3037C28.447 23.3037 28.2002 23.5507 28.2002 23.85C28.2002 24.1494 28.447 24.3964 28.7461 24.3964C29.0452 24.3964 29.292 24.1494 29.292 23.85C29.2994 23.5507 29.0527 23.3037 28.7461 23.3037Z" fill="#14142B"/>
<path d="M27.54 24.4187C27.2109 24.4187 26.9492 24.6881 26.9492 25.0099C26.9492 25.3392 27.2109 25.6012 27.54 25.6012C27.869 25.6012 28.1307 25.3317 28.1307 25.0099C28.1382 24.6881 27.869 24.4187 27.54 24.4187Z" fill="#14142B"/>
<path d="M26.1939 25.3691C25.8424 25.3691 25.5508 25.6535 25.5508 26.0053C25.5508 26.357 25.8349 26.6414 26.1939 26.6414C26.5453 26.6414 26.8295 26.357 26.8295 26.0053C26.837 25.6535 26.5528 25.3691 26.1939 25.3691Z" fill="#14142B"/>
<path d="M24.7369 26.1318C24.3555 26.1318 24.049 26.4387 24.049 26.8204C24.049 27.202 24.3555 27.5089 24.7369 27.5089C25.1183 27.5089 25.4249 27.202 25.4249 26.8204C25.4174 26.4462 25.1108 26.1318 24.7369 26.1318Z" fill="#14142B"/>
<path d="M23.1733 26.7009C22.7695 26.7009 22.4404 27.0302 22.4404 27.4343C22.4404 27.8385 22.7695 28.1678 23.1733 28.1678C23.5771 28.1678 23.9061 27.8385 23.9061 27.4343C23.9061 27.0302 23.5771 26.7009 23.1733 26.7009Z" fill="#14142B"/>
<path d="M18.4176 0.702085C18.4399 0.702085 18.4623 0.679731 18.4623 0.657378C18.4623 0.635024 18.4399 0.612671 18.4176 0.612671C18.3953 0.612671 18.3729 0.635024 18.3729 0.657378C18.3729 0.679731 18.3878 0.702085 18.4176 0.702085Z" fill="#14142B"/>
<path d="M20.0188 1.24259C20.0714 1.24259 20.109 1.20497 20.109 1.1523C20.109 1.09963 20.0639 1.06201 20.0188 1.06201C19.9661 1.06201 19.9286 1.09963 19.9286 1.1523C19.921 1.20497 19.9661 1.24259 20.0188 1.24259Z" fill="#14142B"/>
<path d="M21.5517 1.95191C21.6265 1.95191 21.6863 1.89204 21.6863 1.8172C21.6863 1.74237 21.6265 1.6825 21.5517 1.6825C21.4769 1.6825 21.4171 1.74237 21.4171 1.8172C21.4171 1.89204 21.4769 1.95191 21.5517 1.95191Z" fill="#14142B"/>
<path d="M23.0092 2.82028C23.1139 2.82028 23.1887 2.73796 23.1887 2.64067C23.1887 2.54338 23.1064 2.46106 23.0092 2.46106C22.912 2.46106 22.8223 2.54338 22.8223 2.64067C22.8297 2.73796 22.912 2.82028 23.0092 2.82028Z" fill="#14142B"/>
<path d="M24.3774 3.83099C24.5046 3.83099 24.6018 3.72622 24.6018 3.60647C24.6018 3.47925 24.4971 3.38196 24.3774 3.38196C24.2503 3.38196 24.1456 3.48673 24.1456 3.60647C24.1456 3.7337 24.2503 3.83099 24.3774 3.83099Z" fill="#14142B"/>
<path d="M25.6266 4.99069C25.7762 4.99069 25.9033 4.86347 25.9033 4.71379C25.9033 4.56411 25.7837 4.43689 25.6266 4.43689C25.4771 4.43689 25.3574 4.55663 25.3574 4.71379C25.3574 4.86347 25.4771 4.99069 25.6266 4.99069Z" fill="#14142B"/>
<path d="M26.7632 6.27056C26.9352 6.27056 27.0847 6.12837 27.0847 5.94876C27.0847 5.76915 26.9427 5.62695 26.7632 5.62695C26.5837 5.62695 26.4417 5.76915 26.4417 5.94876C26.4417 6.12837 26.5837 6.27056 26.7632 6.27056Z" fill="#14142B"/>
<path d="M27.759 7.66213C27.9609 7.66213 28.1254 7.49748 28.1254 7.29542C28.1254 7.09335 27.9609 6.92871 27.759 6.92871C27.5571 6.92871 27.3926 7.09335 27.3926 7.29542C27.3926 7.49748 27.5496 7.66213 27.759 7.66213Z" fill="#14142B"/>
<path d="M28.5655 9.1743C28.7898 9.1743 28.9767 8.9872 28.9767 8.76269C28.9767 8.53817 28.7898 8.35107 28.5655 8.35107C28.3411 8.35107 28.1542 8.53069 28.1542 8.76269C28.1542 8.9872 28.3411 9.1743 28.5655 9.1743Z" fill="#14142B"/>
<path d="M28.7305 10.3191C28.7305 10.5735 28.9324 10.7756 29.1866 10.7756C29.4409 10.7756 29.6428 10.5735 29.6428 10.3191C29.6428 10.0646 29.4409 9.86255 29.1866 9.86255C28.9324 9.86255 28.7305 10.0646 28.7305 10.3191Z" fill="#14142B"/>
<path d="M29.0889 11.9433C29.0889 12.2202 29.3132 12.4447 29.5899 12.4447C29.8666 12.4447 30.0909 12.2202 30.0909 11.9433C30.0909 11.6664 29.8666 11.4419 29.5899 11.4419C29.3132 11.4419 29.0889 11.6664 29.0889 11.9433Z" fill="#14142B"/>
<path d="M29.2305 13.6122C29.2305 13.9115 29.4772 14.1585 29.7764 14.1585C30.0755 14.1585 30.3222 13.9115 30.3222 13.6122C30.3222 13.3128 30.0755 13.0658 29.7764 13.0658C29.4698 13.0584 29.2305 13.3053 29.2305 13.6122Z" fill="#14142B"/>
<path d="M30.3387 15.2882C30.3387 14.959 30.077 14.697 29.748 14.697C29.419 14.697 29.1572 14.959 29.1572 15.2882C29.1572 15.6175 29.4264 15.8795 29.748 15.8795C30.0695 15.8795 30.3387 15.61 30.3387 15.2882Z" fill="#14142B"/>
<path d="M30.1352 16.9424C30.1352 16.5907 29.851 16.2988 29.4995 16.2988C29.1481 16.2988 28.8564 16.5832 28.8564 16.9424C28.8564 17.2942 29.1406 17.5786 29.4995 17.5786C29.851 17.5786 30.1352 17.2942 30.1352 16.9424Z" fill="#14142B"/>
<path d="M29.7179 18.5516C29.7179 18.1699 29.4113 17.863 29.0299 17.863C28.6485 17.863 28.3419 18.1699 28.3419 18.5516C28.3419 18.9257 28.6485 19.2401 29.0299 19.2401C29.4113 19.2326 29.7179 18.9257 29.7179 18.5516Z" fill="#14142B"/>
<path d="M28.364 19.3523C27.9602 19.3523 27.6387 19.6816 27.6387 20.0857C27.6387 20.4898 27.9677 20.8191 28.364 20.8191C28.7678 20.8191 29.0969 20.4898 29.0969 20.0857C29.0969 19.6816 28.7678 19.3523 28.364 19.3523Z" fill="#14142B"/>
<path d="M6.07971 4.56414C6.10204 4.56414 6.12438 4.54179 6.12438 4.51944C6.12438 4.49709 6.10204 4.47473 6.07971 4.47473C6.05737 4.47473 6.03503 4.49709 6.03503 4.51944C6.03503 4.54179 6.05737 4.56414 6.07971 4.56414Z" fill="#14142B"/>
<path d="M7.55994 3.83145C7.61257 3.83145 7.65016 3.79383 7.65016 3.74116C7.65016 3.6885 7.60505 3.65088 7.55994 3.65088C7.50732 3.65088 7.46973 3.6885 7.46973 3.74116C7.46973 3.79383 7.50732 3.83145 7.55994 3.83145Z" fill="#14142B"/>
<path d="M9.11507 3.25456C9.18985 3.25456 9.24967 3.19469 9.24967 3.11985C9.24967 3.04502 9.18985 2.97766 9.11507 2.97766C9.04029 2.97766 8.98047 3.03753 8.98047 3.11985C8.98047 3.19469 9.04029 3.25456 9.11507 3.25456Z" fill="#14142B"/>
<path d="M10.7317 2.85031C10.8364 2.85031 10.9112 2.76799 10.9112 2.6707C10.9112 2.56593 10.8289 2.49109 10.7317 2.49109C10.6345 2.49109 10.5522 2.57341 10.5522 2.6707C10.5448 2.76799 10.627 2.85031 10.7317 2.85031Z" fill="#14142B"/>
<path d="M12.3763 2.61838C12.5035 2.61838 12.6007 2.51361 12.6007 2.38638C12.6007 2.25916 12.496 2.16187 12.3763 2.16187C12.2492 2.16187 12.1445 2.26664 12.1445 2.38638C12.152 2.51361 12.2567 2.61838 12.3763 2.61838Z" fill="#14142B"/>
<path d="M14.0509 2.55905C14.2004 2.55905 14.3275 2.43931 14.3275 2.28215C14.3275 2.13247 14.2079 2.00525 14.0509 2.00525C13.9013 2.00525 13.7742 2.12499 13.7742 2.28215C13.7742 2.43931 13.9013 2.55905 14.0509 2.55905Z" fill="#14142B"/>
<path d="M15.7188 2.67803C15.8982 2.67803 16.0403 2.53584 16.0403 2.35623C16.0403 2.17662 15.8982 2.03442 15.7188 2.03442C15.5393 2.03442 15.3972 2.17662 15.3972 2.35623C15.4047 2.53584 15.5468 2.67803 15.7188 2.67803Z" fill="#14142B"/>
<path d="M17.3791 2.97035C17.581 2.97035 17.7455 2.80571 17.7455 2.60365C17.7455 2.40158 17.581 2.23694 17.3791 2.23694C17.1772 2.23694 17.0127 2.40158 17.0127 2.60365C17.0127 2.81319 17.1772 2.97035 17.3791 2.97035Z" fill="#14142B"/>
<path d="M18.9865 3.47898C19.2108 3.47898 19.3978 3.29189 19.3978 3.06737C19.3978 2.84286 19.2108 2.65576 18.9865 2.65576C18.7621 2.65576 18.5752 2.84286 18.5752 3.06737C18.5752 3.29189 18.7621 3.47898 18.9865 3.47898Z" fill="#14142B"/>
<path d="M20.5195 4.18988C20.7738 4.18988 20.9757 3.98782 20.9757 3.73337C20.9757 3.47892 20.7738 3.27686 20.5195 3.27686C20.2653 3.27686 20.0634 3.47892 20.0634 3.73337C20.0708 3.98782 20.2727 4.18988 20.5195 4.18988Z" fill="#14142B"/>
<path d="M21.4531 4.59407C21.4531 4.87097 21.6775 5.09549 21.9541 5.09549C22.2308 5.09549 22.4552 4.87097 22.4552 4.59407C22.4552 4.31717 22.2308 4.09265 21.9541 4.09265C21.6775 4.09265 21.4531 4.31717 21.4531 4.59407Z" fill="#14142B"/>
<path d="M23.2627 6.18798C23.5618 6.18798 23.8086 5.94101 23.8086 5.64166C23.8086 5.3423 23.5618 5.09534 23.2627 5.09534C22.9561 5.09534 22.7168 5.3423 22.7168 5.64166C22.7168 5.94101 22.9636 6.18798 23.2627 6.18798Z" fill="#14142B"/>
<path d="M24.4298 7.43709C24.7588 7.43709 25.0205 7.16767 25.0205 6.84586C25.0205 6.51657 24.7513 6.25464 24.4298 6.25464C24.1007 6.25464 23.839 6.52406 23.839 6.84586C23.8315 7.17515 24.1007 7.43709 24.4298 7.43709Z" fill="#14142B"/>
<path d="M25.417 7.55017C25.0655 7.55017 24.7814 7.83456 24.7814 8.1863C24.7814 8.53804 25.0655 8.82242 25.417 8.82242C25.7684 8.82242 26.0526 8.53804 26.0526 8.1863C26.0601 7.84204 25.7759 7.55017 25.417 7.55017Z" fill="#14142B"/>
<path d="M25.5508 9.66019C25.5508 10.0344 25.8574 10.3412 26.2313 10.3412C26.6126 10.3412 26.9118 10.0344 26.9118 9.66019C26.9118 9.27852 26.6052 8.97168 26.2313 8.97168C25.8499 8.97168 25.5508 9.27852 25.5508 9.66019Z" fill="#14142B"/>
<path d="M26.1123 11.2172C26.1123 11.6213 26.4413 11.9506 26.8451 11.9506C27.2489 11.9506 27.5705 11.6213 27.5705 11.2172C27.5705 10.8131 27.2415 10.4838 26.8451 10.4838C26.4413 10.4838 26.1123 10.8131 26.1123 11.2172Z" fill="#14142B"/>
<path d="M27.2493 12.0631C26.823 12.0631 26.4716 12.4149 26.4716 12.8414C26.4716 13.268 26.8155 13.6197 27.2493 13.6197C27.6755 13.6197 28.027 13.2755 28.027 12.8414C28.027 12.4149 27.6755 12.0631 27.2493 12.0631Z" fill="#14142B"/>
<path d="M0.090214 15.8944C0.0451069 15.8944 0 15.932 0 15.9772C0 16.0223 0.037589 16.0599 0.090214 16.0599C0.135321 16.0599 0.172911 16.0223 0.172911 15.9772C0.172911 15.932 0.135321 15.8944 0.090214 15.8944Z" fill="#14142B"/>
<path d="M0.583124 14.2106C0.485912 14.2106 0.411133 14.2854 0.411133 14.3827C0.411133 14.48 0.485912 14.5548 0.583124 14.5548C0.680336 14.5548 0.755114 14.48 0.755114 14.3827C0.755114 14.2854 0.680336 14.2106 0.583124 14.2106Z" fill="#14142B"/>
<path d="M1.50425 12.841C1.50425 12.6988 1.38461 12.5791 1.24253 12.5791C1.10045 12.5791 0.988281 12.6914 0.988281 12.841C0.988281 12.9832 1.10045 13.103 1.24253 13.103C1.39209 13.103 1.50425 12.9832 1.50425 12.841Z" fill="#14142B"/>
<path d="M2.06359 11.7261C2.25053 11.7261 2.40757 11.5689 2.40757 11.3819C2.40757 11.1948 2.25053 11.0376 2.06359 11.0376C1.87664 11.0376 1.7196 11.1948 1.7196 11.3819C1.7196 11.5764 1.87664 11.7261 2.06359 11.7261Z" fill="#14142B"/>
<path d="M3.03574 10.4466C3.27503 10.4466 3.46945 10.252 3.46945 10.0126C3.46945 9.77307 3.27503 9.57849 3.03574 9.57849C2.79644 9.57849 2.6095 9.77307 2.6095 10.0126C2.6095 10.2595 2.79644 10.4466 3.03574 10.4466Z" fill="#14142B"/>
<path d="M4.14305 9.27886C4.42721 9.27886 4.65902 9.04686 4.65902 8.76248C4.65902 8.47809 4.42721 8.24609 4.14305 8.24609C3.85889 8.24609 3.62708 8.47809 3.62708 8.76248C3.62708 9.04686 3.85889 9.27886 4.14305 9.27886Z" fill="#14142B"/>
<path d="M5.37621 8.23069C5.70524 8.23069 5.97444 7.96128 5.97444 7.6245C5.97444 7.29521 5.70524 7.01831 5.37621 7.01831C5.04719 7.01831 4.77051 7.28773 4.77051 7.6245C4.77799 7.96128 5.04719 8.23069 5.37621 8.23069Z" fill="#14142B"/>
<path d="M6.723 7.32576C7.10437 7.32576 7.41096 7.01892 7.41096 6.63724C7.41096 6.25557 7.10437 5.94873 6.723 5.94873C6.34163 5.94873 6.03503 6.25557 6.03503 6.63724C6.03503 7.01892 6.34163 7.32576 6.723 7.32576Z" fill="#14142B"/>
<path d="M8.18004 6.58431C8.60628 6.58431 8.95026 6.23257 8.95026 5.80599C8.95026 5.37941 8.60628 5.03516 8.18004 5.03516C7.7538 5.03516 7.40234 5.37941 7.40234 5.80599C7.40234 6.23257 7.7538 6.58431 8.18004 6.58431Z" fill="#14142B"/>
<path d="M9.7287 6.03865C10.1624 6.03865 10.5139 5.71685 10.5737 5.30524C10.7457 5.55221 11.0299 5.70937 11.3439 5.70937C11.7103 5.70937 12.0244 5.49982 12.1814 5.20046C12.3684 5.44743 12.6675 5.61208 13.004 5.61208C13.3106 5.61208 13.5798 5.47737 13.7668 5.2753C13.9687 5.55969 14.2977 5.74679 14.6791 5.74679C14.9183 5.74679 15.1352 5.67195 15.3147 5.54472C15.3595 5.61208 15.4044 5.67195 15.4568 5.73182C15.1726 5.76175 14.9183 5.88149 14.7239 6.06859C14.5145 5.87401 14.2304 5.75427 13.9163 5.75427C13.52 5.75427 13.1685 5.94885 12.9517 6.2482C12.7572 6.09853 12.5179 6.00872 12.2562 6.00872C11.8001 6.00872 11.4112 6.27814 11.2318 6.6673C11.0598 6.54756 10.8579 6.4802 10.6335 6.4802C10.125 6.4802 9.70627 6.83194 9.5941 7.30342C9.44454 7.21362 9.26507 7.15375 9.07813 7.15375C8.52477 7.15375 8.07609 7.60278 8.07609 8.1491C7.94149 8.06678 7.77698 8.02187 7.61247 8.02187C7.09649 8.02187 6.67773 8.44097 6.67773 8.95735C6.67773 9.04716 6.69269 9.13696 6.71512 9.21929C6.58052 9.13696 6.43096 9.09206 6.26645 9.09206C5.78787 9.09206 5.39902 9.48122 5.39902 9.96019C5.39902 10.4392 5.78787 10.8283 6.26645 10.8283C6.74503 10.8283 7.13388 10.4392 7.13388 9.96019C7.13388 9.88535 7.11893 9.81799 7.10397 9.74315C7.25353 9.84044 7.42552 9.89283 7.61247 9.89283C8.11348 9.89283 8.52477 9.49619 8.53972 8.99477C8.69676 9.09206 8.87623 9.15193 9.07065 9.15193C9.08561 9.15193 9.10804 9.15193 9.123 9.15193C8.91362 9.33903 8.77901 9.60845 8.7491 9.9078C8.6818 9.89283 8.6145 9.88535 8.5472 9.88535C7.94149 9.88535 7.45543 10.3793 7.45543 10.978C7.45543 11.0229 7.45543 11.0603 7.46291 11.1052C7.42552 11.0977 7.38065 11.0977 7.34326 11.0977C6.76747 11.0977 6.30384 11.5617 6.30384 12.138C6.30384 12.2502 6.31879 12.3625 6.35618 12.4673C6.33375 12.4673 6.31132 12.4673 6.29636 12.4673C5.75795 12.4673 5.31676 12.9088 5.31676 13.4477C5.31676 13.6347 5.36911 13.8069 5.46632 13.964C5.45884 13.964 5.45136 13.964 5.43641 13.964C4.92791 13.964 4.51663 14.3757 4.51663 14.8846C4.51663 15.154 4.6288 15.3935 4.80827 15.5581C4.79331 15.5581 4.77835 15.5506 4.77088 15.5506C4.29229 15.5506 3.90344 15.9398 3.90344 16.4187C3.90344 16.8977 4.29229 17.2869 4.77088 17.2869C5.24946 17.2869 5.63831 16.8977 5.63831 16.4187C5.63831 16.1793 5.5411 15.9622 5.37658 15.8051C5.39902 15.8051 5.41397 15.8051 5.43641 15.8051C5.70561 15.8051 5.9449 15.6928 6.10941 15.5057C6.10941 15.5132 6.10941 15.5282 6.10941 15.5356C6.10941 15.7751 6.18419 15.9922 6.31879 16.1718C5.92247 16.314 5.64579 16.6882 5.64579 17.1297C5.64579 17.4365 5.78787 17.7134 6.00472 17.908C5.66822 18.0577 5.43641 18.3945 5.43641 18.7836C5.43641 19.1578 5.64579 19.4796 5.95238 19.6443C5.65326 19.7939 5.45136 20.1008 5.45136 20.46C5.45136 20.8941 5.75795 21.2608 6.16176 21.3506C5.88508 21.4928 5.68318 21.7846 5.68318 22.1214C5.68318 22.6004 6.07203 22.9895 6.55061 22.9895C6.60295 22.9895 6.6553 22.9821 6.70764 22.9746C6.37862 23.0794 6.13933 23.3862 6.13933 23.7454C6.13933 24.1944 6.50574 24.5612 6.95441 24.5612C7.40309 24.5612 7.7695 24.1944 7.7695 23.7454C7.7695 23.2964 7.40309 22.9297 6.95441 22.9297C6.90207 22.9297 6.8572 22.9372 6.80486 22.9446C7.15632 22.8324 7.41804 22.5106 7.41804 22.1214C7.41804 22.099 7.41056 22.084 7.41056 22.0616C7.54517 22.2112 7.72463 22.316 7.91906 22.3609C7.77698 22.5255 7.68724 22.7426 7.68724 22.9821C7.68724 23.5134 8.11348 23.94 8.64441 23.94C8.65189 23.94 8.65937 23.94 8.66685 23.94C8.55468 24.0897 8.49485 24.2768 8.49485 24.4713C8.49485 24.9728 8.90614 25.3844 9.40716 25.3844C9.49689 25.3844 9.58662 25.3694 9.66888 25.347C9.57915 25.4817 9.5268 25.6463 9.5268 25.8259C9.5268 26.3049 9.91565 26.694 10.3942 26.694C10.5961 26.694 10.7831 26.6192 10.9326 26.4995C10.813 26.6417 10.7307 26.8288 10.7307 27.0308C10.7307 27.4873 11.0972 27.854 11.5533 27.854C12.0095 27.854 12.3759 27.4873 12.3759 27.0308C12.3759 26.8138 12.2861 26.6117 12.1515 26.462C12.2637 26.462 12.3684 26.4396 12.4656 26.4097C12.4656 26.4097 12.4656 26.4171 12.4656 26.4246C12.4656 26.8138 12.6899 27.1506 13.0115 27.3152C12.9666 27.3077 12.9143 27.3002 12.8619 27.3002C12.4357 27.3002 12.0842 27.6445 12.0842 28.0786C12.0842 28.5051 12.4282 28.8569 12.8619 28.8569C13.2882 28.8569 13.6396 28.5126 13.6396 28.0786C13.6396 27.7867 13.4751 27.5322 13.2283 27.3975C13.3031 27.42 13.3854 27.4275 13.4676 27.4275C13.6621 27.4275 13.8415 27.3676 13.9986 27.2778C14.036 27.7717 14.4472 28.1534 14.9557 28.1534C15.2249 28.1534 15.4717 28.0411 15.6437 27.854C15.711 28.2881 16.0924 28.6249 16.5485 28.6249C16.8925 28.6249 17.1991 28.4303 17.3487 28.1384C17.4309 28.5351 17.7824 28.8344 18.2011 28.8344C18.6498 28.8344 19.0087 28.4977 19.0611 28.0561C19.091 28.4827 19.4425 28.8195 19.8762 28.8195C20.3323 28.8195 20.6987 28.4527 20.6987 27.9962C20.6987 27.5472 20.3398 27.188 19.8986 27.1805C19.9734 27.1057 20.0332 27.0159 20.0856 26.9186C20.265 27.1057 20.5193 27.2179 20.8034 27.2179C20.9081 27.2179 21.0128 27.2029 21.11 27.173C20.9081 27.3152 20.766 27.5472 20.766 27.8166C20.766 28.2432 21.1175 28.5949 21.5437 28.5949C21.97 28.5949 22.3214 28.2507 22.3214 27.8166C22.3214 27.39 21.9775 27.0383 21.5437 27.0383C21.4615 27.0383 21.3942 27.0533 21.3194 27.0757C21.5512 26.941 21.7157 26.709 21.7756 26.4396C21.9401 26.5818 22.1569 26.6641 22.3962 26.6641C22.9271 26.6641 23.3534 26.2375 23.3534 25.7062C23.3534 25.6987 23.3534 25.6912 23.3534 25.6837C23.5029 25.796 23.6899 25.8559 23.8843 25.8559C24.3853 25.8559 24.7966 25.4442 24.7966 24.9428C24.7966 24.853 24.7817 24.7632 24.7592 24.6809C24.8938 24.7707 25.0583 24.8306 25.2378 24.8306C25.7164 24.8306 26.1052 24.4414 26.1052 23.9624C26.1052 23.7604 26.0305 23.5733 25.9108 23.4236C26.0529 23.5508 26.2398 23.6257 26.4417 23.6257C26.8979 23.6257 27.2643 23.259 27.2643 22.8025C27.2643 22.3459 26.8979 21.9792 26.4417 21.9792C26.2249 21.9792 26.023 22.069 25.8734 22.2112C25.8734 22.099 25.851 21.9942 25.8211 21.8969H25.8286C26.2174 21.8969 26.5539 21.6724 26.7259 21.3506C26.7184 21.403 26.7109 21.4479 26.7109 21.5003C26.7109 21.9268 27.0549 22.2786 27.4886 22.2786C27.9149 22.2786 28.2663 21.9343 28.2663 21.5003C28.2663 21.0737 27.9149 20.7219 27.4886 20.7219C27.1895 20.7219 26.9428 20.8866 26.8082 21.1336C26.8306 21.0587 26.8381 20.9764 26.8381 20.8941C26.8381 20.6995 26.7782 20.5199 26.6885 20.3627C27.1821 20.3253 27.5634 19.9137 27.5634 19.4123C27.5634 19.1429 27.4513 18.8959 27.2643 18.7238C27.698 18.6564 28.0345 18.2747 28.0345 17.8257C28.0345 17.474 27.8401 17.1746 27.5559 17.0174C27.9523 16.9351 28.2514 16.5834 28.2514 16.1643C28.2514 15.7153 27.9149 15.3485 27.4737 15.3036C27.8999 15.2737 28.2364 14.922 28.2364 14.4879C28.2364 14.0314 27.87 13.6647 27.4139 13.6647C26.9577 13.6647 26.5913 14.0314 26.5913 14.4879C26.5913 14.907 26.9128 15.2513 27.3241 15.3036C26.8755 15.3336 26.5165 15.7078 26.5165 16.1643C26.5165 16.4936 26.7035 16.7705 26.9652 16.9202C26.539 16.995 26.2099 17.3692 26.2099 17.8182C26.2099 18.0652 26.3146 18.2972 26.4791 18.4618C26.008 18.5292 25.6491 18.9258 25.6491 19.4123C25.6491 19.5919 25.694 19.7565 25.7837 19.8987C25.2528 19.9287 24.834 20.3627 24.834 20.9016C24.834 20.9988 24.849 21.0961 24.8789 21.1934C24.8639 21.1934 24.849 21.1934 24.834 21.1934C24.2507 21.1934 23.7871 21.6649 23.7871 22.2412C23.7871 22.2636 23.7871 22.2935 23.7946 22.316C23.7422 22.3085 23.6824 22.301 23.6301 22.301C23.0767 22.301 22.6206 22.7126 22.5458 23.2365C22.4486 23.2141 22.3513 23.1991 22.2467 23.1991C21.7905 23.1991 21.3942 23.4685 21.2147 23.8577C20.9904 23.6781 20.6987 23.5957 20.3996 23.6481C20.0631 23.708 19.8014 23.9325 19.6743 24.2244C19.4574 23.9924 19.1359 23.8652 18.7994 23.9101C18.4703 23.955 18.2011 24.157 18.0516 24.4339C17.8721 24.2019 17.5879 24.0597 17.2739 24.0597C16.9822 24.0597 16.7205 24.1795 16.5336 24.3741C16.4214 24.1196 16.1971 23.9101 15.9054 23.8277C15.5988 23.7379 15.2773 23.7978 15.038 23.9699C14.9707 23.6781 14.7837 23.4236 14.4921 23.2814C14.2154 23.1467 13.9088 23.1542 13.6471 23.2739C13.6396 22.9895 13.5125 22.7126 13.2657 22.5181C13.0339 22.331 12.7498 22.2711 12.4806 22.316C12.5479 22.0391 12.488 21.7323 12.3086 21.4853C12.1141 21.2234 11.815 21.0887 11.5159 21.0812C11.6356 20.8117 11.6281 20.4899 11.486 20.213C11.3514 19.9586 11.1196 19.7865 10.8653 19.7116C11.0299 19.5021 11.1046 19.2252 11.0598 18.9408C11.0074 18.6265 10.8205 18.372 10.5737 18.2298C10.813 18.0427 10.97 17.7509 10.97 17.4216C10.97 17.1222 10.8354 16.8603 10.626 16.6732C10.8803 16.546 11.0747 16.314 11.1495 16.0146C11.2243 15.7227 11.157 15.4234 10.9925 15.1914C11.2542 15.1315 11.4935 14.9669 11.643 14.7199C11.7926 14.4505 11.815 14.1437 11.7178 13.8742C12.0095 13.8892 12.3086 13.7769 12.5179 13.5375C12.7273 13.3055 12.8021 13.0061 12.7647 12.7142C13.0339 12.7816 13.333 12.7367 13.5798 12.5646C13.8341 12.3849 13.9836 12.1155 14.006 11.8311C14.2603 11.9659 14.5744 11.9883 14.866 11.8686C15.1352 11.7563 15.3296 11.5393 15.4194 11.2848C15.6213 11.4719 15.8979 11.5692 16.1971 11.5393C16.5186 11.5093 16.7878 11.3297 16.9448 11.0753C17.1094 11.3148 17.3786 11.4794 17.6926 11.5019C17.9917 11.5243 18.2684 11.4121 18.4703 11.2175C18.575 11.4794 18.7919 11.7039 19.091 11.8012C19.3901 11.906 19.7117 11.8536 19.9584 11.689C20.0108 11.9733 20.1902 12.2353 20.4669 12.3849C20.6987 12.5122 20.953 12.5346 21.1848 12.4822C21.2147 12.5197 21.2446 12.5571 21.2671 12.587C21.282 12.804 21.3643 13.0136 21.5213 13.1857C21.5288 13.1932 21.5363 13.2007 21.5437 13.2082C22.0597 13.747 23.2487 15.0492 23.0244 16.7929C22.9645 17.227 23.2113 17.444 23.5254 17.1147C25.4173 15.0791 25.1182 12.572 25.0733 12.2802C25.0658 12.0856 25.0209 11.906 24.9536 11.7339C24.9761 11.6291 24.9836 11.5168 24.9836 11.4046C24.9836 10.8807 24.7293 10.4092 24.3405 10.1173C24.3554 10.0201 24.3704 9.92277 24.3704 9.82548C24.3704 9.17438 23.9666 8.62058 23.3983 8.38858C23.3833 7.66265 22.8449 7.06394 22.1494 6.95168C22.0298 6.29311 21.454 5.79917 20.766 5.79917C20.7436 5.79917 20.7137 5.79917 20.6913 5.79917C20.5193 5.26034 20.0183 4.87866 19.42 4.87866C19.3004 4.87866 19.1882 4.89363 19.0835 4.92356C18.8816 4.4895 18.4479 4.18266 17.9319 4.18266C17.73 4.18266 17.5431 4.22757 17.3786 4.30989C17.1692 3.95815 16.7878 3.71866 16.3466 3.71866C16.0625 3.71866 15.8082 3.81595 15.6063 3.9806C15.4044 3.7037 15.0754 3.5166 14.7015 3.5166C14.35 3.5166 14.036 3.68125 13.8266 3.9357C13.6396 3.7037 13.348 3.55402 13.0264 3.55402C12.6077 3.55402 12.2487 3.80099 12.0917 4.16021C11.9197 3.95815 11.658 3.82344 11.3664 3.82344C10.8803 3.82344 10.4765 4.19015 10.4241 4.66911C10.2671 4.45957 10.0203 4.32486 9.74366 4.32486C9.26508 4.32486 8.8837 4.71402 8.8837 5.1855C8.86875 5.65698 9.2576 6.03865 9.7287 6.03865Z" fill="#14142B"/>
<path d="M3.94904 28.2581C3.91171 28.2581 3.88184 28.288 3.88184 28.3253C3.88184 28.3627 3.91171 28.3926 3.94904 28.3926C3.98638 28.3926 4.01625 28.3627 4.01625 28.3253C4.01625 28.288 3.98638 28.2581 3.94904 28.2581Z" fill="#14142B"/>
<path d="M3.16976 26.7087C3.09498 26.7087 3.03516 26.7686 3.03516 26.8434C3.03516 26.9183 3.09498 26.9782 3.16976 26.9782C3.24454 26.9782 3.30436 26.9183 3.30436 26.8434C3.30436 26.7686 3.24454 26.7087 3.16976 26.7087Z" fill="#14142B"/>
<path d="M2.54956 25.0842C2.43739 25.0842 2.34766 25.174 2.34766 25.2863C2.34766 25.3986 2.43739 25.4884 2.54956 25.4884C2.66173 25.4884 2.75146 25.3986 2.75146 25.2863C2.75146 25.174 2.66173 25.0842 2.54956 25.0842Z" fill="#14142B"/>
<path d="M2.10123 23.4083C1.95168 23.4083 1.83203 23.5281 1.83203 23.6777C1.83203 23.8274 1.95168 23.9472 2.10123 23.9472C2.25079 23.9472 2.37044 23.8274 2.37044 23.6777C2.36296 23.5281 2.24331 23.4083 2.10123 23.4083Z" fill="#14142B"/>
<path d="M2.15369 22.024C2.15369 21.8369 2.00413 21.6873 1.82466 21.6873C1.63772 21.6873 1.48816 21.8369 1.48816 22.024C1.48816 22.2111 1.63772 22.3533 1.82466 22.3533C2.00413 22.3533 2.15369 22.2111 2.15369 22.024Z" fill="#14142B"/>
<path d="M2.1159 20.355C2.1159 20.138 1.93643 19.9584 1.71957 19.9584C1.50271 19.9584 1.32324 20.138 1.32324 20.355C1.32324 20.5795 1.50271 20.7591 1.71957 20.7591C1.93643 20.7517 2.1159 20.572 2.1159 20.355Z" fill="#14142B"/>
<path d="M1.32324 18.6784C1.32324 18.9328 1.53262 19.1424 1.78687 19.1424C2.04112 19.1424 2.2505 18.9328 2.2505 18.6784C2.2505 18.4164 2.04112 18.2144 1.78687 18.2144C1.53262 18.2144 1.32324 18.4164 1.32324 18.6784Z" fill="#14142B"/>
<path d="M2.04087 17.5561C2.3325 17.5561 2.57179 17.3166 2.57179 17.0248C2.57179 16.7329 2.3325 16.4934 2.04087 16.4934C1.74923 16.4934 1.50994 16.7329 1.50994 17.0248C1.50246 17.3166 1.74175 17.5561 2.04087 17.5561Z" fill="#14142B"/>
<path d="M2.49667 14.8096C2.16764 14.8096 1.89844 15.079 1.89844 15.4083C1.89844 15.7376 2.16764 16.007 2.49667 16.007C2.82569 16.007 3.0949 15.7376 3.0949 15.4083C3.0949 15.079 2.82569 14.8096 2.49667 14.8096Z" fill="#14142B"/>
<path d="M3.16333 14.54C3.52975 14.54 3.82886 14.2407 3.82886 13.8739C3.82886 13.5072 3.52975 13.2079 3.16333 13.2079C2.79692 13.2079 2.4978 13.5072 2.4978 13.8739C2.4978 14.2407 2.79692 14.54 3.16333 14.54Z" fill="#14142B"/>
<path d="M4.02299 13.1706C4.4268 13.1706 4.75583 12.8413 4.75583 12.4372C4.75583 12.033 4.4268 11.7037 4.02299 11.7037C3.61919 11.7037 3.29016 12.033 3.29016 12.4372C3.29016 12.8413 3.61919 13.1706 4.02299 13.1706Z" fill="#14142B"/>
<path d="M5.87004 11.1277C5.87004 10.6861 5.5111 10.3269 5.06991 10.3269C4.62871 10.3269 4.26978 10.6861 4.26978 11.1277C4.26978 11.5692 4.62871 11.9284 5.06991 11.9284C5.5111 11.9284 5.87004 11.5692 5.87004 11.1277Z" fill="#14142B"/>
<path d="M46.9608 23.3948C46.0934 23.3948 45.2634 23.2227 44.4931 22.8934C43.7229 22.5641 43.0499 22.1001 42.4816 21.5314C41.9133 20.9626 41.4571 20.2741 41.1281 19.5032C40.7991 18.7324 40.6271 17.8942 40.6271 17.0261C40.6271 16.1505 40.7916 15.3123 41.1281 14.5415C41.4571 13.7706 41.9133 13.0896 42.4816 12.5133C43.0499 11.9446 43.7229 11.4806 44.4857 11.1438C45.2559 10.807 46.0859 10.6349 46.9608 10.6349C47.8432 10.6349 48.6882 10.807 49.4659 11.1513C50.2361 11.4955 50.9241 11.967 51.4999 12.5657C51.627 12.6929 51.7168 12.8501 51.7841 13.0372C51.8588 13.2542 51.8289 13.4713 51.7018 13.6658C51.5597 13.8829 51.3503 14.0026 51.0811 14.0176H51.0737C50.7745 14.0176 50.5726 13.9278 50.4007 13.7631C49.9669 13.3964 49.436 13.0372 48.8453 12.7304C48.262 12.431 47.6338 12.2738 46.9683 12.2738C46.3252 12.2738 45.7045 12.4011 45.1288 12.648C44.5604 12.9025 44.0519 13.2467 43.6332 13.6808C43.2144 14.1149 42.8704 14.6313 42.6311 15.2C42.3844 15.7763 42.2647 16.39 42.2647 17.0411C42.2647 17.6847 42.3919 18.3058 42.6311 18.8821C42.8704 19.4508 43.2069 19.9597 43.6332 20.3863C44.0519 20.8129 44.553 21.1572 45.1288 21.4041C45.7045 21.6511 46.3177 21.7783 46.9608 21.7783C47.6413 21.7783 48.2919 21.6436 48.8826 21.3817C49.4659 21.1197 49.9894 20.753 50.4156 20.289C50.5427 20.1394 50.7147 20.0421 50.9241 19.9972C50.9839 19.9822 51.0512 19.9747 51.111 19.9747C51.2606 19.9747 51.4027 20.0196 51.5298 20.1094C51.7392 20.2816 51.8364 20.4986 51.8364 20.7605C51.8364 21.015 51.7616 21.232 51.6046 21.3966C51.0213 22.0328 50.3259 22.5342 49.5332 22.8859C48.7406 23.2152 47.8731 23.3948 46.9608 23.3948Z" fill="#14142B"/>
<path d="M60.2117 23.3803C59.3443 23.3803 58.5067 23.2082 57.7365 22.8789C56.9663 22.5496 56.2933 22.0931 55.725 21.5243C55.1566 20.9556 54.7005 20.282 54.3715 19.5112C54.0424 18.7478 53.8779 17.9096 53.8779 17.0415C53.8779 16.1659 54.0424 15.3352 54.3715 14.5719C54.7005 13.8085 55.1566 13.1275 55.725 12.5512C56.2858 11.975 56.9663 11.5185 57.7365 11.1892C58.5067 10.8599 59.3368 10.6877 60.2117 10.6877C61.0791 10.6877 61.9092 10.8524 62.6794 11.1892C63.4496 11.5185 64.1301 11.9824 64.6984 12.5512C65.2742 13.1275 65.7304 13.801 66.0594 14.5719C66.3884 15.3427 66.5604 16.1734 66.5604 17.0415C66.5604 17.9171 66.3884 18.7478 66.0594 19.5112C65.7304 20.2745 65.2742 20.9556 64.6984 21.5243C64.1226 22.0931 63.4421 22.5496 62.6794 22.8789C61.9166 23.2082 61.0866 23.3803 60.2117 23.3803ZM60.2117 12.3192C59.5686 12.3192 58.9554 12.4464 58.3796 12.6859C57.8038 12.9329 57.3028 13.2697 56.884 13.6962C56.4578 14.1303 56.1213 14.6392 55.882 15.208C55.6427 15.7842 55.5156 16.3979 55.5156 17.049C55.5156 17.7001 55.6352 18.3138 55.882 18.8825C56.1213 19.4588 56.4578 19.9602 56.884 20.3793C57.3028 20.7984 57.8038 21.1352 58.3796 21.3821C58.9479 21.6291 59.5686 21.7489 60.2117 21.7489C60.8623 21.7489 61.4754 21.6291 62.0438 21.3821C62.6196 21.1352 63.1281 20.7984 63.5543 20.3793C63.9805 19.9602 64.317 19.4588 64.5638 18.8825C64.8031 18.3138 64.9302 17.6926 64.9302 17.049C64.9302 16.3979 64.8106 15.7842 64.5638 15.2155C64.317 14.6392 63.9805 14.1378 63.5543 13.7037C63.1281 13.2772 62.6196 12.9404 62.0438 12.6934C61.4754 12.439 60.8548 12.3192 60.2117 12.3192Z" fill="#14142B"/>
<path d="M77.7838 23.417C77.5595 23.417 77.3651 23.3347 77.208 23.1775C77.051 23.0203 76.9688 22.8258 76.9688 22.6013V15.327C76.9688 14.9079 76.894 14.5187 76.7295 14.1445C76.565 13.7778 76.3481 13.4485 76.0639 13.1641C75.7798 12.8872 75.4507 12.6627 75.0843 12.4981C74.7179 12.3334 74.3216 12.2586 73.9028 12.2586C73.4841 12.2586 73.0952 12.3409 72.7213 12.4981C72.3549 12.6552 72.0259 12.8797 71.7567 13.1641C71.48 13.4485 71.2631 13.7778 71.0986 14.1445C70.9416 14.5187 70.8593 14.9154 70.8593 15.327V22.6013C70.8593 22.8258 70.7771 23.0203 70.62 23.1775C70.4705 23.3347 70.2686 23.417 70.0442 23.417C69.8124 23.417 69.618 23.3347 69.461 23.1775C69.3039 23.0203 69.2217 22.8258 69.2217 22.6013V15.327C69.2217 14.6908 69.3413 14.0772 69.5881 13.5009C69.8274 12.9247 70.1639 12.4232 70.5901 12.0041C71.0089 11.5776 71.5099 11.2408 72.0782 10.9938C72.6466 10.7469 73.2597 10.6196 73.9028 10.6196C74.5459 10.6196 75.1591 10.7469 75.7274 10.9938C76.2957 11.2333 76.7968 11.5776 77.2155 11.9967C77.6343 12.4157 77.9783 12.9172 78.225 13.4859C78.4718 14.0547 78.5989 14.6684 78.5989 15.312V22.5863C78.5989 22.8108 78.5242 23.0054 78.3671 23.1625C78.2026 23.3347 78.0082 23.417 77.7838 23.417Z" fill="#14142B"/>
<path d="M85.8093 23.4174C85.1812 23.4174 84.5904 23.3126 84.0445 23.118C83.4986 22.916 83.0126 22.6391 82.5938 22.2798C82.1751 21.9206 81.846 21.5015 81.6067 21.0301C81.3675 20.5511 81.2478 20.0347 81.2478 19.4884C81.2478 19.2788 81.3226 19.0917 81.4721 18.9421C81.6217 18.7924 81.8086 18.7101 82.0255 18.7101C82.2349 18.7101 82.4218 18.7849 82.5714 18.9346C82.7209 19.0843 82.7957 19.2713 82.7957 19.4884C82.7957 19.8102 82.8705 20.1095 83.0201 20.3939C83.1696 20.6783 83.379 20.9328 83.6482 21.1423C83.9099 21.3519 84.2315 21.524 84.5979 21.6512C84.9643 21.7784 85.3681 21.8383 85.7869 21.8383C86.2056 21.8383 86.6094 21.7709 86.9833 21.6512C87.3572 21.524 87.6862 21.3519 87.9629 21.1348C88.2396 20.9253 88.449 20.6783 88.606 20.3864C88.7481 20.117 88.8154 19.8102 88.793 19.4959C88.7705 19.1965 88.6733 18.9196 88.5163 18.6652C88.3518 18.4032 88.1349 18.1563 87.8732 17.9542C87.6115 17.7446 87.3049 17.5725 86.9534 17.4303C86.6169 17.2956 86.243 17.1908 85.8616 17.1235C85.3232 17.0861 84.7848 16.9813 84.2763 16.8092C83.7678 16.637 83.3117 16.4125 82.9228 16.1356C82.534 15.8587 82.2124 15.5294 81.9732 15.1552C81.7264 14.7736 81.5993 14.3395 81.5993 13.8755C81.5993 13.4115 81.7189 12.9774 81.9432 12.5808C82.1676 12.1916 82.4817 11.8474 82.878 11.5555C83.2668 11.2711 83.723 11.0391 84.2389 10.867C84.7549 10.7024 85.3083 10.6125 85.8916 10.6125C86.4748 10.6125 87.0282 10.6949 87.5442 10.867C88.0601 11.0391 88.5163 11.2636 88.9051 11.5555C89.3015 11.8549 89.6155 12.1991 89.8399 12.5808C90.0717 12.9774 90.1913 13.4115 90.1913 13.8755C90.1913 14.1 90.1091 14.2946 89.952 14.4518C89.795 14.6089 89.6006 14.6912 89.3762 14.6912C89.1444 14.6912 88.95 14.6014 88.8004 14.4368C88.6584 14.2796 88.5836 14.0701 88.5612 13.8156C88.5537 13.6285 88.4864 13.4414 88.3518 13.2693C88.2097 13.0822 88.0302 12.9101 87.7909 12.7604C87.5442 12.6033 87.26 12.4835 86.9385 12.3937C86.6094 12.3039 86.258 12.259 85.9065 12.259C85.5326 12.259 85.1737 12.3039 84.8372 12.3937C84.5082 12.4835 84.224 12.6033 83.9847 12.7604C83.7604 12.9101 83.5734 13.0897 83.4313 13.2992C83.3042 13.4938 83.2369 13.6959 83.2369 13.9054C83.2369 14.1075 83.3117 14.2871 83.4687 14.4592C83.6407 14.6538 83.8651 14.8185 84.1268 14.9607C84.4035 15.1103 84.7026 15.2301 85.0241 15.3348C85.3382 15.4321 85.6448 15.4995 85.9364 15.5369C86.5421 15.6043 87.1179 15.7465 87.6489 15.9635C88.1947 16.188 88.6658 16.4649 89.0622 16.7942C89.4735 17.1385 89.795 17.5426 90.0193 17.9916C90.2512 18.4481 90.3708 18.9495 90.3708 19.4884C90.3708 20.0347 90.2511 20.5511 90.0119 21.0375C89.78 21.5165 89.4435 21.9356 89.0248 22.2948C88.606 22.6391 88.12 22.9235 87.5815 23.133C87.0282 23.3126 86.43 23.4174 85.8093 23.4174Z" fill="#14142B"/>
<path d="M94.0415 23.4177C93.8097 23.4177 93.6228 23.3354 93.4657 23.1782C93.3087 23.021 93.2264 22.8265 93.2264 22.6019V11.451C93.2264 11.2265 93.3087 11.0244 93.4657 10.8673C93.6228 10.7101 93.8172 10.6278 94.0415 10.6278H100.846C101.071 10.6278 101.273 10.7101 101.422 10.8673C101.579 11.0244 101.661 11.219 101.661 11.451C101.661 11.6755 101.587 11.8701 101.422 12.0273C101.265 12.1844 101.071 12.2668 100.846 12.2668H94.8566V16.1733H99.0966C99.3209 16.1733 99.5228 16.2557 99.6724 16.4128C99.8294 16.57 99.9117 16.7646 99.9117 16.9891C99.9117 17.2136 99.8294 17.4156 99.6724 17.5653C99.5153 17.7225 99.3209 17.8048 99.0966 17.8048H94.8566V21.7862H100.846C101.071 21.7862 101.265 21.8685 101.422 22.0257C101.579 22.1828 101.661 22.3849 101.661 22.6094C101.661 22.8339 101.587 23.0285 101.422 23.1857C101.265 23.3428 101.071 23.4252 100.846 23.4252H94.0415V23.4177Z" fill="#14142B"/>
<path d="M112.407 23.4171C112.182 23.4171 111.988 23.3348 111.831 23.1776C111.674 23.0205 111.592 22.8259 111.592 22.6014V15.3271C111.592 14.908 111.517 14.5188 111.352 14.1446C111.195 13.7779 110.971 13.4486 110.687 13.1643C110.403 12.8799 110.074 12.6628 109.707 12.4982C109.341 12.3336 108.944 12.2587 108.533 12.2587C108.114 12.2587 107.718 12.341 107.352 12.4982C106.985 12.6554 106.656 12.8799 106.387 13.1643C106.11 13.4486 105.886 13.7779 105.729 14.1446C105.572 14.5188 105.49 14.9155 105.49 15.3271V22.6014C105.49 22.8259 105.407 23.0205 105.25 23.1776C105.093 23.3348 104.899 23.4171 104.675 23.4171C104.45 23.4171 104.256 23.3348 104.099 23.1776C103.942 23.0205 103.859 22.8259 103.859 22.6014V15.3271C103.859 14.6835 103.979 14.0698 104.218 13.501C104.465 12.9248 104.802 12.4234 105.22 12.0043C105.647 11.5777 106.14 11.2409 106.709 10.9939C107.277 10.747 107.89 10.6198 108.533 10.6198C109.176 10.6198 109.789 10.747 110.358 10.9939C110.919 11.2334 111.42 11.5702 111.846 11.9968C112.265 12.4159 112.609 12.9173 112.855 13.4861C113.102 14.0548 113.229 14.6685 113.229 15.3121V22.5864C113.229 22.8109 113.147 23.0055 112.99 23.1627C112.825 23.3348 112.631 23.4171 112.407 23.4171Z" fill="#14142B"/>
<path d="M120.432 23.417C119.803 23.417 119.213 23.3122 118.667 23.1176C118.121 22.9156 117.627 22.6387 117.216 22.2794C116.797 21.9277 116.468 21.5011 116.229 21.0296C115.99 20.5507 115.87 20.0343 115.87 19.488C115.87 19.2784 115.945 19.0913 116.094 18.9417C116.244 18.792 116.431 18.7097 116.648 18.7097C116.865 18.7097 117.044 18.7845 117.201 18.9342C117.351 19.0913 117.433 19.2709 117.433 19.488C117.433 19.8098 117.508 20.1166 117.657 20.3935C117.807 20.6779 118.016 20.9324 118.278 21.1419C118.547 21.3589 118.869 21.5311 119.235 21.6583C119.602 21.7855 120.005 21.8454 120.424 21.8454C120.843 21.8454 121.247 21.778 121.621 21.6583C121.994 21.5311 122.324 21.3589 122.6 21.1419C122.877 20.9324 123.094 20.6779 123.243 20.3935C123.385 20.1241 123.453 19.8173 123.43 19.5029C123.408 19.2036 123.311 18.9267 123.154 18.6722C122.989 18.4103 122.78 18.1708 122.51 17.9613C122.256 17.7517 121.942 17.5796 121.591 17.4374C121.254 17.3027 120.888 17.1979 120.499 17.1306C119.961 17.0931 119.422 16.9884 118.914 16.8162C118.405 16.6441 117.949 16.4196 117.56 16.1427C117.171 15.8658 116.85 15.5365 116.61 15.1623C116.364 14.7732 116.237 14.3466 116.237 13.8826C116.237 13.4261 116.356 12.992 116.581 12.5879C116.812 12.1987 117.126 11.847 117.515 11.5626C117.904 11.2782 118.36 11.0462 118.876 10.8741C119.392 10.7094 119.946 10.6196 120.529 10.6196C121.112 10.6196 121.665 10.702 122.181 10.8741C122.697 11.0462 123.154 11.2707 123.542 11.5626C123.931 11.8545 124.253 12.1987 124.477 12.5879C124.709 12.992 124.829 13.4261 124.829 13.8826C124.829 14.1071 124.746 14.3017 124.589 14.4588C124.44 14.616 124.245 14.6983 124.014 14.6983C123.782 14.6983 123.587 14.6085 123.438 14.4439C123.296 14.2942 123.221 14.0846 123.198 13.8227C123.183 13.6281 123.116 13.4485 122.989 13.2764C122.854 13.0893 122.66 12.9172 122.428 12.7675C122.189 12.6103 121.897 12.4906 121.576 12.4008C121.247 12.311 120.903 12.2661 120.536 12.2661C120.162 12.2661 119.803 12.311 119.467 12.4008C119.138 12.4906 118.854 12.6103 118.614 12.7675C118.383 12.9172 118.203 13.0968 118.061 13.3063C117.927 13.5009 117.867 13.703 117.867 13.9125C117.867 14.1146 117.941 14.2942 118.099 14.4663C118.278 14.6609 118.495 14.8255 118.757 14.9677C119.033 15.1174 119.332 15.2372 119.654 15.3419C119.961 15.4392 120.267 15.5066 120.559 15.544C121.164 15.6113 121.74 15.7535 122.271 15.9706C122.81 16.1876 123.281 16.472 123.684 16.8013C124.088 17.1381 124.41 17.5422 124.642 17.9912C124.873 18.4552 124.993 18.9566 124.993 19.488C124.993 20.0343 124.873 20.5507 124.634 21.0371C124.395 21.5161 124.066 21.9352 123.647 22.2944C123.236 22.6387 122.742 22.9231 122.204 23.1326C121.651 23.3122 121.052 23.417 120.432 23.417Z" fill="#14142B"/>
<path d="M132.724 23.4177C132.5 23.4177 132.305 23.3354 132.148 23.1782C131.991 23.021 131.909 22.8265 131.909 22.6019V18.4484L126.884 11.9524C126.749 11.7878 126.682 11.5783 126.704 11.3612C126.719 11.1517 126.816 10.9571 126.988 10.8149C127.146 10.6877 127.318 10.6278 127.512 10.6278C127.796 10.6503 127.983 10.7475 128.125 10.9197L132.724 16.8394L137.413 10.9197C137.555 10.7401 137.742 10.6428 137.959 10.6278H137.973C138.228 10.6278 138.4 10.6877 138.549 10.8074C138.729 10.9496 138.826 11.1367 138.841 11.3537C138.856 11.5708 138.796 11.7728 138.661 11.945L133.539 18.4409V22.5945C133.539 22.819 133.457 23.021 133.3 23.1707C133.143 23.3354 132.948 23.4177 132.724 23.4177Z" fill="#14142B"/>
<path d="M144.996 23.4174C144.368 23.4174 143.777 23.3126 143.231 23.118C142.685 22.916 142.199 22.6391 141.78 22.2798C141.362 21.9206 141.033 21.5015 140.793 21.0301C140.554 20.5586 140.434 20.0347 140.434 19.4884C140.434 19.2788 140.509 19.0917 140.659 18.9421C140.808 18.7924 140.995 18.7101 141.212 18.7101C141.421 18.7101 141.616 18.7849 141.758 18.9421C141.907 19.0917 141.982 19.2788 141.982 19.4884C141.982 19.8102 142.057 20.1095 142.207 20.3939C142.356 20.6783 142.566 20.9253 142.835 21.1423C143.096 21.3519 143.418 21.524 143.784 21.6512C144.151 21.7784 144.547 21.8383 144.973 21.8383C145.392 21.8383 145.796 21.7709 146.17 21.6512C146.544 21.524 146.873 21.3519 147.149 21.1348C147.426 20.9253 147.643 20.6708 147.793 20.3864C147.942 20.117 148.002 19.8102 147.979 19.4959C147.957 19.204 147.86 18.9196 147.703 18.6652C147.538 18.4032 147.321 18.1637 147.06 17.9542C146.798 17.7446 146.491 17.5725 146.14 17.4303C145.803 17.2956 145.43 17.1908 145.048 17.1235C144.51 17.0861 143.971 16.9813 143.463 16.8092C142.954 16.637 142.498 16.4125 142.109 16.1356C141.721 15.8587 141.399 15.5294 141.16 15.1552C140.913 14.7661 140.786 14.3395 140.786 13.8755C140.786 13.419 140.898 12.9849 141.13 12.5808C141.354 12.1916 141.668 11.8474 142.065 11.5555C142.453 11.2711 142.91 11.0391 143.425 10.867C143.941 10.7024 144.495 10.6125 145.078 10.6125C145.661 10.6125 146.215 10.6949 146.731 10.867C147.247 11.0391 147.703 11.2711 148.084 11.5555C148.481 11.8474 148.795 12.1916 149.019 12.5808C149.251 12.9849 149.363 13.419 149.363 13.8755C149.363 14.1 149.281 14.2946 149.124 14.4518C148.974 14.6089 148.78 14.6912 148.548 14.6912C148.316 14.6912 148.122 14.6014 147.972 14.4368C147.83 14.2871 147.748 14.0776 147.733 13.8156C147.725 13.6211 147.658 13.4414 147.523 13.2693C147.381 13.0747 147.202 12.9101 146.955 12.7604C146.716 12.6033 146.424 12.4835 146.103 12.3937C145.766 12.3039 145.43 12.259 145.063 12.259C144.689 12.259 144.33 12.3039 143.994 12.3937C143.665 12.4835 143.381 12.6033 143.141 12.7604C142.909 12.9101 142.73 13.0897 142.588 13.2992C142.453 13.4938 142.394 13.6959 142.394 13.9054C142.394 14.1075 142.468 14.2871 142.625 14.4592C142.805 14.6538 143.022 14.8185 143.283 14.9607C143.56 15.1103 143.859 15.2301 144.181 15.3348C144.495 15.4321 144.801 15.4995 145.086 15.5369C145.691 15.6043 146.267 15.7465 146.798 15.9635C147.336 16.188 147.815 16.4649 148.211 16.7942C148.615 17.131 148.937 17.5351 149.168 17.9916C149.4 18.4481 149.52 18.9495 149.52 19.4884C149.52 20.0347 149.4 20.5511 149.161 21.0375C148.929 21.5165 148.593 21.9356 148.174 22.2948C147.763 22.6391 147.269 22.9235 146.731 23.133C146.215 23.3126 145.616 23.4174 144.996 23.4174Z" fill="#14142B"/>
</svg>
