<svg width="102" height="24" viewBox="0 0 102 24" fill="none" xmlns="http://www.w3.org/2000/svg">
<path d="M10.4528 23.7441C10.4528 23.7441 10.4243 23.7584 10.4243 23.7726C10.4243 23.7868 10.4385 23.801 10.4528 23.801C10.467 23.801 10.4812 23.7868 10.4812 23.7726C10.4812 23.7584 10.467 23.7441 10.4528 23.7441Z" fill="white"/>
<path d="M9.3679 23.3733C9.3679 23.3733 9.28186 23.402 9.28186 23.4593C9.28186 23.5167 9.31054 23.5454 9.3679 23.5454C9.42526 23.5454 9.45394 23.5167 9.45394 23.4593C9.45394 23.402 9.42526 23.3733 9.3679 23.3733Z" fill="white"/>
<path d="M8.31132 22.8733C8.31132 22.8733 8.19659 22.9307 8.19659 22.988C8.19659 23.0454 8.25396 23.1027 8.31132 23.1027C8.36868 23.1027 8.42604 23.0454 8.42604 22.988C8.42604 22.9307 8.36868 22.8733 8.31132 22.8733Z" fill="white"/>
<path d="M7.32554 22.2883C7.23986 22.2883 7.16846 22.3597 7.16846 22.4454C7.16846 22.5311 7.23986 22.6025 7.32554 22.6025C7.41121 22.6025 7.48261 22.5311 7.48261 22.4454C7.48261 22.3597 7.41121 22.2883 7.32554 22.2883Z" fill="white"/>
<path d="M6.39712 21.5743C6.29716 21.5743 6.1972 21.66 6.1972 21.7743C6.1972 21.8742 6.28288 21.9742 6.39712 21.9742C6.49708 21.9742 6.59704 21.8885 6.59704 21.7743C6.59704 21.6743 6.51136 21.5743 6.39712 21.5743Z" fill="white"/>
<path d="M5.55477 20.7886C5.42625 20.7886 5.31201 20.8885 5.31201 21.0313C5.31201 21.1741 5.41197 21.2741 5.55477 21.2741C5.69757 21.2741 5.79753 21.1741 5.79753 21.0313C5.79753 20.8885 5.69757 20.7886 5.55477 20.7886" fill="white"/>
<path d="M4.76936 19.9176C4.61229 19.9176 4.49805 20.0318 4.49805 20.1889C4.49805 20.346 4.61229 20.4602 4.76936 20.4602C4.92644 20.4602 5.04068 20.346 5.04068 20.1889C5.05496 20.0318 4.92644 19.9176 4.76936 19.9176Z" fill="white"/>
<path d="M4.11249 18.9464C3.94114 18.9464 3.78406 19.0749 3.78406 19.2748C3.78406 19.4462 3.91258 19.6033 4.11249 19.6033C4.28385 19.6033 4.44093 19.4748 4.44093 19.2748C4.42665 19.1035 4.28385 18.9464 4.11249 18.9464Z" fill="white"/>
<path d="M3.91266 18.275C3.91266 18.0893 3.75558 17.918 3.55566 17.918C3.35575 17.918 3.19867 18.075 3.19867 18.275C3.19867 18.4606 3.35575 18.632 3.55566 18.632C3.75558 18.632 3.91266 18.4749 3.91266 18.275Z" fill="white"/>
<path d="M3.52734 17.2186C3.52734 17.0044 3.35598 16.833 3.14178 16.833C2.92758 16.833 2.75623 17.0044 2.75623 17.2186C2.75623 17.4328 2.92758 17.6041 3.14178 17.6041C3.35598 17.6041 3.52734 17.4328 3.52734 17.2186Z" fill="white"/>
<path d="M3.28428 16.1193C3.28428 15.8765 3.09864 15.6909 2.85588 15.6909C2.61313 15.6909 2.42749 15.8765 2.42749 16.1193C2.42749 16.3621 2.61313 16.5477 2.85588 16.5477C3.09864 16.5477 3.28428 16.3621 3.28428 16.1193Z" fill="white"/>
<path d="M3.19882 14.9908C3.19882 14.7337 2.9989 14.5195 2.72758 14.5195C2.47054 14.5195 2.25635 14.7194 2.25635 14.9908C2.25635 15.2478 2.45626 15.462 2.72758 15.462C2.9989 15.462 3.19882 15.2478 3.19882 14.9908Z" fill="white"/>
<path d="M2.75577 14.3623C3.04137 14.3623 3.26985 14.1481 3.26985 13.8482C3.26985 13.5483 3.05565 13.3341 2.75577 13.3341C2.4559 13.3341 2.2417 13.5483 2.2417 13.8482C2.2417 14.1195 2.4559 14.3623 2.75577 14.3623" fill="white"/>
<path d="M2.37067 12.7207C2.37067 13.0206 2.61342 13.2634 2.9133 13.2634C3.21318 13.2634 3.45593 13.0206 3.45593 12.7207C3.45593 12.4209 3.21318 12.1781 2.9133 12.1781C2.6277 12.1781 2.37067 12.4209 2.37067 12.7207" fill="white"/>
<path d="M18.8348 21.1169C18.8348 21.1169 18.8064 21.1312 18.8064 21.1454C18.8064 21.1596 18.8206 21.1738 18.8348 21.1738C18.8491 21.1738 18.8633 21.1596 18.8633 21.1454C18.8633 21.1312 18.8491 21.1169 18.8348 21.1169Z" fill="white"/>
<path d="M17.8357 21.6022C17.8357 21.6022 17.764 21.6308 17.764 21.6739C17.764 21.7169 17.7927 21.7456 17.8357 21.7456C17.8788 21.7456 17.9074 21.7169 17.9074 21.6739C17.9074 21.6308 17.8788 21.6022 17.8357 21.6022Z" fill="white"/>
<path d="M16.7648 22.0024C16.7648 22.0024 16.6644 22.0598 16.6644 22.1028C16.6644 22.1458 16.7218 22.2032 16.7648 22.2032C16.8078 22.2032 16.8652 22.1458 16.8652 22.1028C16.8652 22.0598 16.8365 22.0024 16.7648 22.0024Z" fill="white"/>
<path d="M15.6794 22.2737C15.5937 22.2737 15.5509 22.3451 15.5509 22.4022C15.5509 22.4593 15.6223 22.5307 15.6794 22.5307C15.7365 22.5307 15.8079 22.4593 15.8079 22.4022C15.8079 22.3308 15.7365 22.2737 15.6794 22.2737Z" fill="white"/>
<path d="M14.5509 22.4166C14.4509 22.4166 14.3795 22.5023 14.3795 22.588C14.3795 22.6879 14.4652 22.7593 14.5509 22.7593C14.6508 22.7593 14.7222 22.6737 14.7222 22.588C14.7365 22.5023 14.6508 22.4166 14.5509 22.4166Z" fill="white"/>
<path d="M13.4088 22.4738C13.2945 22.4738 13.2089 22.5594 13.2089 22.6737C13.2089 22.7879 13.2945 22.8736 13.4088 22.8736C13.523 22.8736 13.6087 22.7736 13.6087 22.6737C13.623 22.5594 13.523 22.4738 13.4088 22.4738Z" fill="white"/>
<path d="M12.2809 22.3881C12.1524 22.3881 12.0381 22.488 12.0381 22.6308C12.0381 22.7736 12.1381 22.8736 12.2809 22.8736C12.4237 22.8736 12.5237 22.7736 12.5237 22.6308C12.5379 22.5023 12.4237 22.3881 12.2809 22.3881Z" fill="white"/>
<path d="M11.1527 22.1879C10.9956 22.1879 10.8813 22.3021 10.8813 22.4592C10.8813 22.6163 10.9956 22.7305 11.1527 22.7305C11.3097 22.7305 11.424 22.6163 11.424 22.4592C11.424 22.3021 11.3097 22.1879 11.1527 22.1879Z" fill="white"/>
<path d="M10.0531 21.8309C9.88175 21.8309 9.75323 21.9594 9.75323 22.1308C9.75323 22.3022 9.88175 22.4307 10.0531 22.4307C10.2245 22.4307 10.353 22.3022 10.353 22.1308C10.3673 21.9594 10.2245 21.8309 10.0531 21.8309Z" fill="white"/>
<path d="M9.02497 21.3317C8.83933 21.3317 8.68225 21.4887 8.68225 21.6744C8.68225 21.86 8.83933 22.0171 9.02497 22.0171C9.2106 22.0171 9.36768 21.86 9.36768 21.6744C9.36768 21.503 9.2106 21.3317 9.02497 21.3317Z" fill="white"/>
<path d="M8.4392 21.1026C8.4392 20.9027 8.26785 20.7313 8.06793 20.7313C7.86801 20.7313 7.68237 20.9027 7.68237 21.1026C7.68237 21.3025 7.85373 21.4739 8.06793 21.4739C8.26785 21.4881 8.4392 21.3168 8.4392 21.1026Z" fill="white"/>
<path d="M7.16839 19.9888C6.92563 19.9888 6.73999 20.1744 6.73999 20.4172C6.73999 20.6599 6.92563 20.8456 7.16839 20.8456C7.38258 20.8456 7.59678 20.6599 7.59678 20.4172C7.59678 20.1744 7.39686 19.9888 7.16839 19.9888Z" fill="white"/>
<path d="M6.369 19.1179C6.11197 19.1179 5.91205 19.3178 5.91205 19.5749C5.91205 19.8319 6.11197 20.0318 6.369 20.0318C6.62604 20.0318 6.82596 19.8319 6.82596 19.5749C6.82596 19.3178 6.62604 19.1179 6.369 19.1179Z" fill="white"/>
<path d="M5.68357 19.1469C5.95489 19.1469 6.16909 18.9327 6.16909 18.6614C6.16909 18.3901 5.95489 18.1759 5.68357 18.1759C5.41226 18.1759 5.19806 18.3901 5.19806 18.6614C5.21234 18.9327 5.41226 19.1469 5.68357 19.1469" fill="white"/>
<path d="M5.65473 17.6612C5.65473 17.3756 5.41197 17.1328 5.12638 17.1328C4.84078 17.1328 4.59802 17.3756 4.59802 17.6612C4.59802 17.9468 4.84078 18.1895 5.12638 18.1895C5.42625 18.1895 5.65473 17.9468 5.65473 17.6612Z" fill="white"/>
<path d="M22.9047 13.3488C22.9047 13.3488 22.8763 13.363 22.8763 13.3772C22.8763 13.3914 22.8905 13.4056 22.9047 13.4056C22.9189 13.4056 22.9332 13.3914 22.9332 13.3772C22.9189 13.363 22.9189 13.3488 22.9047 13.3488Z" fill="white"/>
<path d="M22.5767 14.3912C22.5767 14.3912 22.505 14.4199 22.505 14.4629C22.505 14.506 22.5337 14.5346 22.5767 14.5346C22.6197 14.5346 22.6484 14.506 22.6484 14.4629C22.6484 14.4199 22.6197 14.3912 22.5767 14.3912Z" fill="white"/>
<path d="M22.12 15.405C22.12 15.405 22.034 15.4337 22.034 15.4911C22.034 15.5484 22.0627 15.5915 22.12 15.5915C22.1774 15.5915 22.2204 15.5628 22.2204 15.4911C22.2061 15.4624 22.1631 15.405 22.12 15.405Z" fill="white"/>
<path d="M21.563 16.3762C21.563 16.3762 21.4483 16.4336 21.4483 16.4909C21.4483 16.5483 21.5057 16.6057 21.563 16.6057C21.6204 16.6057 21.6777 16.5483 21.6777 16.4909C21.6777 16.4336 21.6204 16.3762 21.563 16.3762Z" fill="white"/>
<path d="M20.8914 17.2758C20.8057 17.2758 20.7343 17.3471 20.7343 17.4328C20.7343 17.5185 20.8057 17.5899 20.8914 17.5899C20.9771 17.5899 21.0485 17.5185 21.0485 17.4328C21.0485 17.3471 20.9771 17.2758 20.8914 17.2758Z" fill="white"/>
<path d="M20.1488 18.0895C20.0488 18.0895 19.9631 18.1752 19.9631 18.2751C19.9631 18.3751 20.0488 18.4607 20.1488 18.4607C20.2487 18.4607 20.3344 18.3751 20.3344 18.2751C20.3344 18.1752 20.2487 18.0895 20.1488 18.0895Z" fill="white"/>
<path d="M19.3065 18.8328C19.1922 18.8328 19.0923 18.9327 19.0923 19.047C19.0923 19.1612 19.1922 19.2612 19.3065 19.2612C19.4207 19.2612 19.5207 19.1612 19.5207 19.047C19.5207 18.9327 19.4207 18.8328 19.3065 18.8328Z" fill="white"/>
<path d="M18.3924 19.4749C18.2638 19.4749 18.1353 19.5891 18.1353 19.7319C18.1353 19.8747 18.2496 19.9889 18.3924 19.9889C18.5352 19.9889 18.6494 19.8747 18.6494 19.7319C18.6494 19.5891 18.5352 19.4749 18.3924 19.4749Z" fill="white"/>
<path d="M17.4071 20.0027C17.25 20.0027 17.1215 20.1169 17.1215 20.274C17.1215 20.4311 17.2357 20.5596 17.4071 20.5596C17.5641 20.5596 17.6784 20.4454 17.6784 20.274C17.6784 20.1169 17.5641 20.0027 17.4071 20.0027Z" fill="white"/>
<path d="M16.3361 20.3744C16.1647 20.3744 16.0362 20.5029 16.0362 20.6743C16.0362 20.8456 16.1647 20.9741 16.3361 20.9741C16.5074 20.9741 16.6359 20.8456 16.6359 20.6743C16.6359 20.5172 16.5074 20.3744 16.3361 20.3744Z" fill="white"/>
<path d="M15.2368 20.6316C15.0512 20.6316 14.8941 20.7887 14.8941 20.9743C14.8941 21.1599 15.0512 21.317 15.2368 21.317C15.4225 21.317 15.5795 21.1599 15.5795 20.9743C15.5795 20.7887 15.4225 20.6316 15.2368 20.6316Z" fill="white"/>
<path d="M14.1086 20.7313C13.9087 20.7313 13.7374 20.9027 13.7374 21.1026C13.7374 21.3025 13.9087 21.4739 14.1086 21.4739C14.3086 21.4739 14.4799 21.3025 14.4799 21.1026C14.4799 20.9027 14.3086 20.7313 14.1086 20.7313Z" fill="white"/>
<path d="M13.3802 21.0601C13.3802 20.8459 13.1946 20.6603 12.9804 20.6603C12.7662 20.6603 12.5806 20.8459 12.5806 21.0601C12.5806 21.2743 12.7662 21.46 12.9804 21.46C13.1946 21.46 13.3802 21.2743 13.3802 21.0601Z" fill="white"/>
<path d="M12.2806 20.9028C12.2806 20.66 12.095 20.4601 11.8379 20.4601C11.5952 20.4601 11.3953 20.6457 11.3953 20.9028C11.3953 21.1455 11.5809 21.3454 11.8379 21.3454C12.095 21.3454 12.2806 21.1598 12.2806 20.9028Z" fill="white"/>
<path d="M11.2238 20.5887C11.2238 20.3316 11.0239 20.1317 10.7526 20.1317C10.4956 20.1317 10.2957 20.3316 10.2957 20.5887C10.2957 20.8457 10.4956 21.0599 10.7526 21.0599C11.0096 21.0456 11.2238 20.8457 11.2238 20.5887Z" fill="white"/>
<path d="M10.21 20.1313C10.21 19.86 9.99584 19.6458 9.72453 19.6458C9.45321 19.6458 9.23901 19.86 9.23901 20.1313C9.23901 20.4026 9.45321 20.6168 9.72453 20.6168C9.99584 20.6168 10.21 20.4026 10.21 20.1313Z" fill="white"/>
<path d="M20.2914 5.02392C20.2914 5.02392 20.3198 5.00969 20.3198 4.99548C20.3198 4.98126 20.3056 4.96704 20.2914 4.96704C20.2772 4.96704 20.2629 4.98126 20.2629 4.99548C20.2629 5.00969 20.2772 5.02392 20.2914 5.02392Z" fill="white"/>
<path d="M20.806 6.0671C20.806 6.0671 20.8777 6.03843 20.8777 5.99541C20.8777 5.95239 20.849 5.92371 20.806 5.92371C20.763 5.92371 20.7343 5.95239 20.7343 5.99541C20.7343 6.03843 20.763 6.0671 20.806 6.0671Z" fill="white"/>
<path d="M21.2345 7.15219C21.2345 7.15219 21.3206 7.12351 21.3206 7.06615C21.3206 7.00879 21.2919 6.9801 21.2345 6.9801C21.1771 6.9801 21.1485 7.00879 21.1485 7.06615C21.1341 7.12351 21.1771 7.15219 21.2345 7.15219Z" fill="white"/>
<path d="M21.5342 8.28047C21.5342 8.28047 21.6489 8.22311 21.6489 8.16575C21.6489 8.10839 21.5915 8.05103 21.5342 8.05103C21.4768 8.05103 21.4195 8.10839 21.4195 8.16575C21.4051 8.23745 21.4768 8.28047 21.5342 8.28047Z" fill="white"/>
<path d="M21.5766 9.27852C21.5766 9.3642 21.648 9.4356 21.7337 9.4356C21.8194 9.4356 21.8908 9.3642 21.8908 9.27852C21.8908 9.19284 21.8194 9.12144 21.7337 9.12144C21.648 9.10716 21.5766 9.19284 21.5766 9.27852Z" fill="white"/>
<path d="M21.7909 10.2356C21.6909 10.2356 21.6052 10.3213 21.6052 10.4212C21.6052 10.5212 21.6909 10.6069 21.7909 10.6069C21.8908 10.6069 21.9765 10.5212 21.9765 10.4212C21.9765 10.3213 21.8908 10.2356 21.7909 10.2356Z" fill="white"/>
<path d="M21.7483 11.3358C21.634 11.3358 21.5341 11.4358 21.5341 11.55C21.5341 11.6643 21.634 11.7642 21.7483 11.7642C21.8625 11.7642 21.9625 11.6643 21.9625 11.55C21.9625 11.4358 21.8625 11.3358 21.7483 11.3358Z" fill="white"/>
<path d="M21.577 12.4347C21.4485 12.4347 21.32 12.5489 21.32 12.6917C21.32 12.8345 21.4342 12.9488 21.577 12.9488C21.7198 12.9488 21.8341 12.8488 21.8341 12.6917C21.8341 12.5347 21.7198 12.4347 21.577 12.4347Z" fill="white"/>
<path d="M21.5338 13.763C21.5338 13.6059 21.4196 13.4917 21.2625 13.4917C21.1054 13.4917 20.9769 13.6059 20.9769 13.763C20.9769 13.9201 21.0912 14.0343 21.2625 14.0343C21.4196 14.0343 21.5338 13.9201 21.5338 13.763Z" fill="white"/>
<path d="M20.8055 14.4916C20.6341 14.4916 20.5056 14.6201 20.5056 14.7915C20.5056 14.9628 20.6341 15.0913 20.8055 15.0913C20.9768 15.0913 21.1054 14.9628 21.1054 14.7915C21.1054 14.6201 20.9768 14.4916 20.8055 14.4916Z" fill="white"/>
<path d="M20.2347 15.4482C20.0491 15.4482 19.892 15.6053 19.892 15.791C19.892 15.9766 20.0491 16.1337 20.2347 16.1337C20.4204 16.1337 20.5775 15.9766 20.5775 15.791C20.5775 15.6053 20.4204 15.4482 20.2347 15.4482Z" fill="white"/>
<path d="M19.5207 16.2905C19.3208 16.2905 19.1494 16.4619 19.1494 16.6618C19.1494 16.8617 19.3208 17.0331 19.5207 17.0331C19.7206 17.0331 19.892 16.8617 19.892 16.6618C19.892 16.4619 19.7206 16.2905 19.5207 16.2905Z" fill="white"/>
<path d="M18.6924 17.0477C18.4782 17.0477 18.2925 17.2334 18.2925 17.4476C18.2925 17.6618 18.4782 17.8474 18.6924 17.8474C18.9066 17.8474 19.0922 17.6618 19.0922 17.4476C19.0922 17.2334 18.9066 17.0477 18.6924 17.0477Z" fill="white"/>
<path d="M17.7786 17.6899C17.5359 17.6899 17.3359 17.8756 17.3359 18.1326C17.3359 18.3754 17.5216 18.5753 17.7786 18.5753C18.0214 18.5753 18.2213 18.3897 18.2213 18.1326C18.2213 17.8899 18.0214 17.6899 17.7786 17.6899Z" fill="white"/>
<path d="M16.793 18.2178C16.536 18.2178 16.3361 18.4177 16.3361 18.689C16.3361 18.946 16.536 19.146 16.793 19.146C17.0501 19.146 17.25 18.946 17.25 18.689C17.25 18.4177 17.0501 18.2178 16.793 18.2178Z" fill="white"/>
<path d="M15.7366 18.604C15.4653 18.604 15.2511 18.8182 15.2511 19.0895C15.2511 19.3608 15.4653 19.575 15.7366 19.575C16.0079 19.575 16.2221 19.3608 16.2221 19.0895C16.2221 18.8182 16.0079 18.604 15.7366 18.604Z" fill="white"/>
<path d="M12.4947 0.953364C12.4947 0.953364 12.5231 0.939138 12.5231 0.924919C12.5231 0.910699 12.5089 0.896484 12.4947 0.896484C12.4805 0.896484 12.4662 0.910699 12.4662 0.924919C12.4662 0.939138 12.4805 0.953364 12.4947 0.953364Z" fill="white"/>
<path d="M13.5804 1.32577C13.5804 1.32577 13.6521 1.2971 13.6521 1.25408C13.6521 1.21106 13.6234 1.18237 13.5804 1.18237C13.5373 1.18237 13.5087 1.21106 13.5087 1.25408C13.523 1.31144 13.5373 1.32577 13.5804 1.32577Z" fill="white"/>
<path d="M14.6375 1.81155C14.6375 1.81155 14.7235 1.78286 14.7235 1.7255C14.7235 1.66814 14.6948 1.62512 14.6375 1.62512C14.5801 1.62512 14.5371 1.6538 14.5371 1.7255C14.5371 1.75418 14.5945 1.81155 14.6375 1.81155Z" fill="white"/>
<path d="M15.6085 2.3824C15.6085 2.3824 15.7232 2.32504 15.7232 2.26768C15.7232 2.21032 15.6659 2.15295 15.6085 2.15295C15.5511 2.15295 15.4938 2.21032 15.4938 2.26768C15.4938 2.32504 15.5511 2.3824 15.6085 2.3824Z" fill="white"/>
<path d="M16.5503 3.0821C16.6359 3.0821 16.7073 3.0107 16.7073 2.92502C16.7073 2.83934 16.6359 2.76794 16.5503 2.76794C16.4646 2.76794 16.3932 2.83934 16.3932 2.92502C16.3932 3.0107 16.4646 3.0821 16.5503 3.0821Z" fill="white"/>
<path d="M17.4072 3.86712C17.5072 3.86712 17.5928 3.78144 17.5928 3.68148C17.5928 3.58152 17.5072 3.49585 17.4072 3.49585C17.3072 3.49585 17.2216 3.58152 17.2216 3.68148C17.2216 3.78144 17.293 3.86712 17.4072 3.86712Z" fill="white"/>
<path d="M18.1637 4.73796C18.2779 4.73796 18.3779 4.63801 18.3779 4.52377C18.3779 4.40953 18.2779 4.30957 18.1637 4.30957C18.0494 4.30957 17.9495 4.40953 17.9495 4.52377C17.9495 4.63801 18.0494 4.73796 18.1637 4.73796Z" fill="white"/>
<path d="M18.8494 5.68058C18.9779 5.68058 19.1064 5.56634 19.1064 5.42354C19.1064 5.28074 18.9922 5.1665 18.8494 5.1665C18.7066 5.1665 18.5923 5.28074 18.5923 5.42354C18.5923 5.56634 18.7066 5.68058 18.8494 5.68058Z" fill="white"/>
<path d="M19.3918 6.70902C19.5489 6.70902 19.6631 6.59478 19.6631 6.4377C19.6631 6.28062 19.5489 6.16638 19.3918 6.16638C19.2347 6.16638 19.1062 6.28062 19.1062 6.4377C19.1205 6.59478 19.2347 6.70902 19.3918 6.70902Z" fill="white"/>
<path d="M19.5065 7.48005C19.5065 7.65141 19.635 7.77993 19.8063 7.77993C19.9777 7.77993 20.1062 7.65141 20.1062 7.48005C20.1062 7.30869 19.9777 7.18018 19.8063 7.18018C19.635 7.18018 19.5065 7.30869 19.5065 7.48005Z" fill="white"/>
<path d="M19.7491 8.57916C19.7491 8.7648 19.9062 8.92188 20.0918 8.92188C20.2774 8.92188 20.4345 8.7648 20.4345 8.57916C20.4345 8.39353 20.2774 8.23645 20.0918 8.23645C19.9062 8.23645 19.7491 8.39353 19.7491 8.57916Z" fill="white"/>
<path d="M19.8488 9.72125C19.8488 9.92117 20.0202 10.0925 20.2201 10.0925C20.42 10.0925 20.5914 9.92117 20.5914 9.72125C20.5914 9.52134 20.42 9.34998 20.2201 9.34998C20.0202 9.34998 19.8488 9.52134 19.8488 9.72125Z" fill="white"/>
<path d="M20.5913 10.8502C20.5913 10.636 20.4057 10.4503 20.1915 10.4503C19.9773 10.4503 19.7916 10.636 19.7916 10.8502C19.7916 11.0644 19.9773 11.25 20.1915 11.25C20.4342 11.25 20.5913 11.0644 20.5913 10.8502Z" fill="white"/>
<path d="M20.4486 11.9779C20.4486 11.7352 20.263 11.5353 20.006 11.5353C19.7632 11.5353 19.5633 11.7209 19.5633 11.9779C19.5633 12.2207 19.7632 12.4206 20.006 12.4206C20.263 12.4206 20.4486 12.2207 20.4486 11.9779Z" fill="white"/>
<path d="M20.1773 13.0774C20.1773 12.8204 19.9774 12.6062 19.7204 12.6062C19.4633 12.6062 19.2634 12.8061 19.2634 13.0774C19.2634 13.3345 19.4633 13.5344 19.7204 13.5344C19.9631 13.5344 20.1773 13.3345 20.1773 13.0774Z" fill="white"/>
<path d="M19.2494 13.62C18.9781 13.62 18.7639 13.8342 18.7639 14.1055C18.7639 14.3768 18.9781 14.591 19.2494 14.591C19.5207 14.591 19.7349 14.3768 19.7349 14.1055C19.7492 13.8342 19.535 13.62 19.2494 13.62Z" fill="white"/>
<path d="M4.1123 3.58129C4.1123 3.58129 4.14074 3.56708 4.14074 3.55286C4.14074 3.53864 4.12652 3.52441 4.1123 3.52441C4.09808 3.52441 4.08386 3.53864 4.08386 3.55286C4.08386 3.56708 4.09808 3.58129 4.1123 3.58129Z" fill="white"/>
<path d="M5.12682 3.08212C5.12682 3.08212 5.19852 3.05343 5.19852 3.01041C5.19852 2.96739 5.16984 2.93872 5.12682 2.93872C5.08379 2.93872 5.05511 2.96739 5.05511 3.01041C5.05511 3.05343 5.08379 3.08212 5.12682 3.08212Z" fill="white"/>
<path d="M6.18357 2.69631C6.18357 2.69631 6.28396 2.66763 6.28396 2.61027C6.28396 2.55291 6.25528 2.50989 6.18357 2.50989C6.12621 2.50989 6.09753 2.56725 6.09753 2.61027C6.09753 2.63895 6.12621 2.69631 6.18357 2.69631Z" fill="white"/>
<path d="M7.28296 2.42561C7.28296 2.42561 7.39768 2.36825 7.39768 2.31089C7.39768 2.25353 7.34032 2.19617 7.28296 2.19617C7.2256 2.19617 7.16824 2.25353 7.16824 2.31089C7.1539 2.36825 7.2256 2.42561 7.28296 2.42561Z" fill="white"/>
<path d="M8.39658 2.25373C8.48226 2.25373 8.55366 2.18233 8.55366 2.09665C8.55366 2.01098 8.48226 1.93958 8.39658 1.93958C8.3109 1.93958 8.2395 2.01098 8.2395 2.09665C8.2395 2.18233 8.3109 2.25373 8.39658 2.25373Z" fill="white"/>
<path d="M9.53903 2.22443C9.63899 2.22443 9.72467 2.13874 9.72467 2.03878C9.72467 1.93882 9.63899 1.85315 9.53903 1.85315C9.43907 1.85315 9.35339 1.93882 9.35339 2.03878C9.35339 2.13874 9.43907 2.22443 9.53903 2.22443Z" fill="white"/>
<path d="M10.6668 2.31085C10.781 2.31085 10.881 2.21088 10.881 2.09665C10.881 1.98241 10.781 1.88245 10.6668 1.88245C10.5525 1.88245 10.4526 1.98241 10.4526 2.09665C10.4526 2.21088 10.5525 2.31085 10.6668 2.31085Z" fill="white"/>
<path d="M11.7806 2.49613C11.9091 2.49613 12.0376 2.39617 12.0376 2.23909C12.0376 2.11057 11.9234 1.98206 11.7806 1.98206C11.6378 1.98206 11.5236 2.09629 11.5236 2.23909C11.5378 2.39617 11.6378 2.49613 11.7806 2.49613Z" fill="white"/>
<path d="M12.8805 2.85318C13.0376 2.85318 13.1661 2.73894 13.1661 2.58187C13.1661 2.42479 13.0519 2.31055 12.8805 2.31055C12.7234 2.31055 12.6092 2.42479 12.6092 2.58187C12.6092 2.71039 12.7234 2.85318 12.8805 2.85318Z" fill="white"/>
<path d="M13.9371 3.32448C14.1085 3.32448 14.237 3.19596 14.237 3.02461C14.237 2.85325 14.1085 2.72473 13.9371 2.72473C13.7657 2.72473 13.6372 2.85325 13.6372 3.02461C13.6229 3.19596 13.7657 3.32448 13.9371 3.32448Z" fill="white"/>
<path d="M14.5653 3.59589C14.5653 3.78152 14.7224 3.9386 14.908 3.9386C15.0937 3.9386 15.2507 3.78152 15.2507 3.59589C15.2507 3.41025 15.0937 3.25317 14.908 3.25317C14.7224 3.25317 14.5653 3.41025 14.5653 3.59589Z" fill="white"/>
<path d="M15.7935 4.68042C15.9934 4.68042 16.1648 4.50906 16.1648 4.30914C16.1648 4.10923 15.9934 3.93787 15.7935 3.93787C15.5936 3.93787 15.4222 4.10923 15.4222 4.30914C15.4222 4.52334 15.5936 4.68042 15.7935 4.68042Z" fill="white"/>
<path d="M16.579 5.53808C16.7932 5.53808 16.9788 5.35244 16.9788 5.13825C16.9788 4.92405 16.7932 4.7384 16.579 4.7384C16.3648 4.7384 16.1791 4.92405 16.1791 5.13825C16.1791 5.35244 16.3648 5.53808 16.579 5.53808Z" fill="white"/>
<path d="M17.25 5.60925C17.0073 5.60925 16.8074 5.7949 16.8074 6.05193C16.8074 6.29469 16.993 6.49461 17.25 6.49461C17.4928 6.49461 17.6927 6.30897 17.6927 6.05193C17.6927 5.80918 17.4928 5.60925 17.25 5.60925Z" fill="white"/>
<path d="M17.3359 7.02287C17.3359 7.27991 17.5359 7.47983 17.7929 7.47983C18.0499 7.47983 18.2498 7.27991 18.2498 7.02287C18.2498 6.76583 18.0499 6.56592 17.7929 6.56592C17.5501 6.56592 17.3359 6.76583 17.3359 7.02287Z" fill="white"/>
<path d="M17.7354 8.0938C17.7354 8.36511 17.9496 8.5793 18.2209 8.5793C18.4922 8.5793 18.7064 8.36511 18.7064 8.0938C18.7064 7.82248 18.4922 7.60828 18.2209 7.60828C17.9496 7.60828 17.7354 7.82248 17.7354 8.0938Z" fill="white"/>
<path d="M18.4925 8.66528C18.2069 8.66528 17.9641 8.90804 17.9641 9.19364C17.9641 9.47924 18.2069 9.722 18.4925 9.722C18.7781 9.722 19.0208 9.47924 19.0208 9.19364C19.0351 8.90804 18.8066 8.66528 18.4925 8.66528Z" fill="white"/>
<path d="M0.0576015 11.264C0.0576015 11.264 0 11.2928 0 11.3216C0 11.3504 0.0288008 11.3792 0.0576015 11.3792C0.0864023 11.3792 0.115203 11.3504 0.115203 11.3216C0.115203 11.2928 0.100803 11.264 0.0576015 11.264Z" fill="white"/>
<path d="M0.385961 10.1212C0.385961 10.1212 0.27124 10.1786 0.27124 10.2359C0.27124 10.2933 0.328601 10.3507 0.385961 10.3507C0.443321 10.3507 0.500682 10.2933 0.500682 10.2359C0.500682 10.1642 0.443321 10.1212 0.385961 10.1212Z" fill="white"/>
<path d="M1.01386 9.1937C1.01386 9.09374 0.928179 9.02234 0.8425 9.02234C0.742542 9.02234 0.671143 9.10802 0.671143 9.1937C0.671143 9.29366 0.756821 9.36506 0.8425 9.36506C0.928179 9.36506 1.01386 9.29366 1.01386 9.1937Z" fill="white"/>
<path d="M1.38521 8.43681C1.51373 8.43681 1.62797 8.33686 1.62797 8.19406C1.62797 8.05126 1.52801 7.95129 1.38521 7.95129C1.24241 7.95129 1.14246 8.05126 1.14246 8.19406C1.14246 8.33686 1.25669 8.43681 1.38521 8.43681" fill="white"/>
<path d="M2.04194 7.56595C2.2133 7.56595 2.32754 7.43743 2.32754 7.28035C2.32754 7.12328 2.19902 6.99475 2.04194 6.99475C1.87059 6.99475 1.75635 7.12328 1.75635 7.28035C1.75635 7.43743 1.88487 7.56595 2.04194 7.56595Z" fill="white"/>
<path d="M2.81305 6.77991C2.99869 6.77991 3.17005 6.62283 3.17005 6.42291C3.17005 6.23728 3.01297 6.06592 2.81305 6.06592C2.62741 6.06592 2.45605 6.223 2.45605 6.42291C2.45605 6.62283 2.61313 6.77991 2.81305 6.77991" fill="white"/>
<path d="M3.64141 6.06651C3.85561 6.06651 4.04125 5.88088 4.04125 5.66668C4.04125 5.45248 3.85561 5.26685 3.64141 5.26685C3.42721 5.26685 3.24158 5.45248 3.24158 5.66668C3.24158 5.88088 3.42721 6.06651 3.64141 6.06651Z" fill="white"/>
<path d="M4.5551 5.45211C4.81213 5.45211 5.02633 5.2522 5.02633 4.98088C5.02633 4.72384 4.82641 4.50964 4.5551 4.50964C4.29806 4.50964 4.08386 4.70956 4.08386 4.98088C4.08386 5.23792 4.29806 5.45211 4.5551 5.45211Z" fill="white"/>
<path d="M5.54056 4.95282C5.82616 4.95282 6.06891 4.71007 6.06891 4.42448C6.06891 4.13888 5.82616 3.89612 5.54056 3.89612C5.25496 3.89612 5.01221 4.13888 5.01221 4.42448C5.01221 4.71007 5.25496 4.95282 5.54056 4.95282Z" fill="white"/>
<path d="M6.59712 4.56685C6.88271 4.56685 7.12547 4.35264 7.16831 4.08133C7.28255 4.25268 7.46819 4.35265 7.69666 4.35265C7.9537 4.35265 8.15362 4.22413 8.26786 3.99565C8.39637 4.16701 8.61057 4.28124 8.82477 4.28124C9.02469 4.28124 9.21032 4.19557 9.35312 4.03849C9.48164 4.22413 9.71012 4.36693 9.98143 4.36693C10.1385 4.36693 10.2813 4.3098 10.4241 4.23841C10.4527 4.29552 10.4955 4.32409 10.5241 4.35265C10.3384 4.36693 10.1528 4.4526 10.0386 4.5954C9.88148 4.46688 9.69584 4.3812 9.49592 4.3812C9.2246 4.3812 8.98185 4.50973 8.83905 4.72392C8.71053 4.62397 8.55345 4.55256 8.36782 4.55256C8.06794 4.55256 7.79662 4.7382 7.6681 4.99523C7.55387 4.90955 7.41107 4.881 7.26827 4.881C6.92555 4.881 6.63996 5.12376 6.55428 5.43792C6.45432 5.36652 6.34008 5.33796 6.19728 5.33796C5.82601 5.33796 5.52613 5.63782 5.52613 6.0091C5.42617 5.95198 5.32621 5.92342 5.1977 5.92342C4.8407 5.92342 4.56938 6.20902 4.56938 6.55174C4.56938 6.62314 4.58366 6.66597 4.59794 6.72309C4.51226 6.66597 4.41231 6.63742 4.29807 6.63742C3.96963 6.63742 3.69832 6.90873 3.69832 7.23716C3.69832 7.5656 3.96963 7.83693 4.29807 7.83693C4.6265 7.83693 4.89782 7.5656 4.89782 7.23716C4.89782 7.18005 4.89782 7.13721 4.88354 7.08009C4.9835 7.15148 5.09774 7.18006 5.22626 7.18006C5.56897 7.18006 5.85457 6.90874 5.85457 6.56602C5.95453 6.63742 6.09732 6.66598 6.21156 6.66598H6.24012C6.1116 6.7945 5.99737 6.96586 5.98309 7.18006C5.92597 7.18006 5.89741 7.16577 5.85457 7.16577C5.45473 7.16577 5.11202 7.50848 5.11202 7.90832V7.994H5.02634C4.64078 7.994 4.31235 8.32244 4.31235 8.708C4.31235 8.79367 4.32663 8.86506 4.34091 8.92218H4.31235C3.94107 8.92218 3.65548 9.22206 3.65548 9.57905C3.65548 9.70757 3.68404 9.83609 3.75543 9.93605H3.74115C3.39844 9.93605 3.11284 10.2216 3.11284 10.5644C3.11284 10.75 3.19852 10.9071 3.31276 11.0213H3.2842C2.95576 11.0213 2.68445 11.2926 2.68445 11.6211C2.68445 11.9495 2.95576 12.2208 3.2842 12.2208C3.61264 12.2208 3.88395 11.9638 3.88395 11.6211C3.88395 11.4497 3.81255 11.3212 3.71259 11.1927H3.74115C3.92679 11.1927 4.08387 11.107 4.19811 10.9928C4.19811 11.1784 4.25523 11.3212 4.32663 11.4354C4.05531 11.5354 3.86967 11.7924 3.86967 12.078C3.86967 12.2779 3.96963 12.4636 4.11243 12.6064C3.89823 12.7063 3.72687 12.9491 3.72687 13.2061C3.72687 13.4632 3.85539 13.6774 4.08387 13.7773C3.88395 13.8773 3.74115 14.0772 3.74115 14.3342C3.74115 14.6198 3.94107 14.8769 4.22667 14.9483C4.04103 15.0482 3.89823 15.2339 3.89823 15.4766C3.89823 15.8051 4.16955 16.0764 4.49799 16.0764C4.52654 16.0764 4.56938 16.0764 4.59794 16.0621C4.38375 16.1335 4.21239 16.3334 4.21239 16.5904C4.21239 16.8903 4.46943 17.1474 4.7693 17.1474C5.06918 17.1474 5.32621 16.8903 5.32621 16.5904C5.32621 16.2906 5.06918 16.0335 4.7693 16.0335C4.74074 16.0335 4.6979 16.0335 4.66934 16.0478C4.9121 15.9764 5.09774 15.7622 5.09774 15.4909V15.4623C5.18342 15.5623 5.29765 15.6337 5.45473 15.6623C5.35477 15.7765 5.29765 15.9193 5.29765 16.0907C5.29765 16.4477 5.58325 16.7332 5.95453 16.7332H5.96881C5.89741 16.8332 5.85457 16.9474 5.85457 17.0902C5.85457 17.433 6.12588 17.7186 6.48288 17.7186C6.55428 17.7186 6.59712 17.7043 6.66852 17.69C6.59712 17.7899 6.56856 17.8899 6.56856 18.0184C6.56856 18.3469 6.83987 18.6182 7.16831 18.6182C7.29683 18.6182 7.43963 18.5611 7.53959 18.4897C7.45391 18.5896 7.41107 18.7039 7.41107 18.8467C7.41107 19.1465 7.6681 19.4036 7.96798 19.4036C8.26786 19.4036 8.52489 19.1465 8.52489 18.8467C8.52489 18.6896 8.45349 18.5611 8.36782 18.4611C8.43921 18.4611 8.52489 18.4468 8.58201 18.4325C8.58201 18.7039 8.73909 18.9181 8.95329 19.0466C8.92473 19.0466 8.88189 19.0323 8.85333 19.0323C8.56773 19.0323 8.32498 19.2751 8.32498 19.5607C8.32498 19.8463 8.56773 20.089 8.85333 20.089C9.13893 20.089 9.38168 19.8463 9.38168 19.5607C9.38168 19.3607 9.26744 19.1894 9.11037 19.1037C9.16749 19.118 9.21032 19.118 9.28172 19.118C9.41024 19.118 9.53876 19.0894 9.63872 19.018C9.66728 19.3607 9.9386 19.6178 10.2813 19.6178C10.4669 19.6178 10.6383 19.5321 10.7525 19.4179C10.8097 19.7035 11.0524 19.9462 11.3666 19.9462C11.6093 19.9462 11.8093 19.8177 11.9092 19.6178C11.9663 19.8891 12.1948 20.089 12.4804 20.089C12.7803 20.089 13.0373 19.8463 13.0516 19.5607C13.0659 19.8463 13.3086 20.089 13.6085 20.089C13.9084 20.089 14.1654 19.832 14.1654 19.5321C14.1654 19.2322 13.9227 18.9895 13.6228 18.9752C13.6799 18.9181 13.7085 18.8609 13.737 18.7895C13.8513 18.9181 14.0369 18.9895 14.2225 18.9895C14.2939 18.9895 14.3511 18.9752 14.4225 18.9609C14.2939 19.0609 14.1797 19.2179 14.1797 19.4036C14.1797 19.6892 14.4225 19.9319 14.7081 19.9319C14.9937 19.9319 15.2364 19.6892 15.2364 19.4036C15.2364 19.118 14.9937 18.8752 14.7081 18.8752C14.6509 18.8752 14.6081 18.8895 14.551 18.8895C14.7081 18.7895 14.8223 18.6325 14.8509 18.4611C14.9651 18.5611 15.1079 18.6182 15.2792 18.6182C15.6362 18.6182 15.9361 18.3326 15.9361 17.9756C16.0361 18.0327 16.1503 18.0756 16.2931 18.0756C16.6358 18.0756 16.9214 17.8042 16.9214 17.4472C16.9214 17.3758 16.9214 17.333 16.8929 17.2616C16.9928 17.333 17.0928 17.3616 17.2213 17.3616C17.5497 17.3616 17.8211 17.0902 17.8211 16.7618C17.8211 16.6333 17.7639 16.4905 17.6925 16.3905C17.7925 16.4762 17.9067 16.519 18.0495 16.519C18.3494 16.519 18.6064 16.262 18.6064 15.9621C18.6064 15.6623 18.3494 15.4052 18.0495 15.4052C17.8925 15.4052 17.7639 15.4623 17.664 15.5623C17.664 15.4909 17.6497 15.4052 17.6354 15.3481C17.9067 15.3481 18.1209 15.191 18.2494 14.9768C18.2494 15.0054 18.2352 15.0482 18.2352 15.0768C18.2352 15.3624 18.4779 15.6051 18.7635 15.6051C19.0491 15.6051 19.2919 15.3624 19.2919 15.0768C19.2919 14.7912 19.0491 14.5484 18.7635 14.5484C18.5636 14.5484 18.3922 14.6627 18.3066 14.8198C18.3208 14.7626 18.3208 14.7198 18.3208 14.6484C18.3208 14.5199 18.2923 14.3914 18.2209 14.2914C18.5636 14.2628 18.8206 13.9915 18.8206 13.6488C18.8206 13.4632 18.735 13.2918 18.6207 13.1776C18.9063 13.1205 19.1491 12.8777 19.1491 12.5635C19.1491 12.3208 19.0206 12.1209 18.8206 12.0209C19.092 11.9638 19.2919 11.7353 19.2919 11.4497C19.2919 11.1498 19.0491 10.8928 18.7635 10.8785C19.0491 10.8642 19.2919 10.6215 19.2919 10.3216C19.2919 10.0217 19.0348 9.7647 18.735 9.7647C18.4351 9.7647 18.178 10.0217 18.178 10.3216C18.178 10.6072 18.3922 10.85 18.6636 10.8785C18.3637 10.8928 18.1209 11.1498 18.1209 11.4783C18.1209 11.6925 18.2352 11.8781 18.4208 11.9923C18.1352 12.0495 17.9067 12.2922 17.9067 12.6064C17.9067 12.7777 17.9781 12.9348 18.0924 13.049C17.7639 13.1062 17.5355 13.3775 17.5355 13.6916C17.5355 13.8059 17.564 13.9344 17.6211 14.0201C17.2641 14.0344 16.9785 14.3485 16.9785 14.6912C16.9785 14.7626 16.9928 14.8197 17.0071 14.8911H16.9785C16.593 14.8911 16.2646 15.2196 16.2646 15.6051V15.6623C16.2646 15.6623 16.1932 15.648 16.1503 15.648C15.779 15.648 15.4792 15.9193 15.422 16.2906C15.3506 16.2763 15.2935 16.262 15.2221 16.262C14.9223 16.262 14.6509 16.4477 14.5224 16.7047C14.3653 16.5905 14.1654 16.519 13.9655 16.5762C13.7513 16.6333 13.5657 16.7618 13.48 16.9617C13.3229 16.8046 13.1087 16.719 12.8802 16.7475C12.666 16.7761 12.4804 16.9189 12.3662 17.1045C12.2519 16.9474 12.0377 16.8475 11.8378 16.8475C11.6379 16.8475 11.4665 16.9332 11.3237 17.0617C11.2381 16.8903 11.081 16.7332 10.8953 16.6904C10.6954 16.619 10.4669 16.6761 10.2956 16.7904C10.2385 16.5904 10.1242 16.4191 9.92432 16.3191C9.73868 16.2335 9.52448 16.2335 9.35312 16.3191C9.35312 16.1335 9.26744 15.9336 9.09609 15.8051C8.93901 15.6908 8.73909 15.6337 8.55345 15.6765C8.61057 15.4909 8.55345 15.291 8.43921 15.1196C8.3107 14.9483 8.0965 14.8483 7.89658 14.8483C7.98226 14.6627 7.98226 14.4485 7.8823 14.2486C7.79662 14.0772 7.62526 13.963 7.45391 13.9058C7.56815 13.7773 7.62526 13.5631 7.58243 13.3775C7.55387 13.1776 7.41107 12.9919 7.23971 12.892C7.41107 12.7635 7.51103 12.5635 7.51103 12.3351C7.51103 12.1351 7.42535 11.9495 7.26827 11.821C7.43963 11.7353 7.56815 11.5782 7.62527 11.3783C7.68238 11.1784 7.62526 10.9785 7.52531 10.8214C7.71094 10.7928 7.86802 10.6643 7.96798 10.493C8.06794 10.3073 8.08222 10.1074 8.0251 9.92178C8.22502 9.93606 8.42493 9.85038 8.56773 9.70758C8.69625 9.5505 8.76765 9.35058 8.73909 9.15067C8.92473 9.20779 9.12465 9.16495 9.296 9.05071C9.46736 8.93647 9.56732 8.75083 9.5816 8.56519C9.75296 8.65087 9.96716 8.66515 10.1528 8.59375C10.3384 8.50808 10.4812 8.37955 10.5241 8.20819C10.6526 8.32243 10.8525 8.39383 11.0524 8.37955C11.2666 8.36527 11.4523 8.25103 11.5665 8.05111C11.6807 8.22247 11.8521 8.32244 12.0806 8.33672C12.2805 8.351 12.4661 8.26531 12.6089 8.15107C12.6803 8.33671 12.8231 8.47951 13.0373 8.53663C13.2515 8.59375 13.4657 8.5652 13.6371 8.45096C13.6656 8.65088 13.7941 8.82222 13.9798 8.92218C14.1369 9.00786 14.3082 9.02215 14.4653 8.99359C14.4796 9.02215 14.4939 9.05071 14.5224 9.06499C14.5367 9.22207 14.5938 9.35059 14.6938 9.46482H14.7081C15.065 9.85038 15.8647 10.7357 15.7076 11.921C15.6791 12.2066 15.8362 12.3636 16.0504 12.1351C17.3355 10.75 17.1356 9.05071 17.1071 8.85079C17.1071 8.72227 17.0785 8.59375 17.0214 8.47951C17.0357 8.40811 17.0357 8.32243 17.0357 8.26531C17.0357 7.90832 16.8643 7.59417 16.593 7.37997C16.6073 7.30857 16.6073 7.25145 16.6073 7.18006C16.6073 6.73738 16.336 6.3661 15.9504 6.19474C15.9361 5.70923 15.5791 5.29511 15.1079 5.20943C15.0222 4.76676 14.6367 4.42405 14.1654 4.42405H14.1083C13.9941 4.06705 13.6513 3.79573 13.2515 3.79573C13.1658 3.79573 13.0944 3.81001 13.0373 3.82429C12.9088 3.52441 12.5946 3.31021 12.2519 3.31021C12.1234 3.31021 11.9806 3.33878 11.8807 3.3959C11.7521 3.15314 11.4808 2.99607 11.1809 2.99607C10.9953 2.99607 10.8097 3.06746 10.6669 3.16742C10.5383 2.98178 10.3099 2.83899 10.0528 2.83899C9.81008 2.83899 9.59588 2.95322 9.45308 3.12458C9.32456 2.9675 9.12465 2.86754 8.91045 2.86754C8.62485 2.86754 8.3821 3.0389 8.26786 3.26738C8.15362 3.13886 7.98226 3.05318 7.78234 3.05318C7.43963 3.05318 7.16831 3.31022 7.13975 3.62437C7.03979 3.49585 6.86843 3.38162 6.6828 3.38162C6.35436 3.38162 6.1116 3.63866 6.1116 3.95281C6.04021 4.40977 6.31152 4.6668 6.63996 4.6668" fill="white"/>
<path d="M2.67088 19.6604C2.67088 19.6604 2.61328 19.6748 2.61328 19.718C2.61328 19.7324 2.62768 19.7756 2.67088 19.7756C2.71408 19.7756 2.72848 19.7612 2.72848 19.718C2.71408 19.6892 2.69968 19.6604 2.67088 19.6604Z" fill="white"/>
<path d="M2.15654 18.604C2.15654 18.604 2.0705 18.6327 2.0705 18.69C2.0705 18.7474 2.09918 18.7761 2.15654 18.7761C2.2139 18.7761 2.24258 18.7474 2.24258 18.69C2.24258 18.6327 2.18522 18.604 2.15654 18.604Z" fill="white"/>
<path d="M1.72801 17.5038C1.72801 17.5038 1.59949 17.5752 1.59949 17.6323C1.59949 17.6894 1.67089 17.7608 1.72801 17.7608C1.78512 17.7608 1.85652 17.6894 1.85652 17.6323C1.85652 17.5752 1.78512 17.5038 1.72801 17.5038Z" fill="white"/>
<path d="M1.42819 16.3762C1.32823 16.3762 1.24255 16.4619 1.24255 16.5619C1.24255 16.6618 1.32823 16.7475 1.42819 16.7475C1.52815 16.7475 1.61383 16.6618 1.61383 16.5619C1.59955 16.4476 1.51387 16.3762 1.42819 16.3762" fill="white"/>
<path d="M1.45647 15.4337C1.45647 15.3194 1.35651 15.2195 1.24227 15.2195C1.12803 15.2195 1.02808 15.3194 1.02808 15.4337C1.02808 15.5479 1.12803 15.6479 1.24227 15.6479C1.35651 15.6479 1.45647 15.5479 1.45647 15.4337Z" fill="white"/>
<path d="M1.42813 14.2916C1.42813 14.1345 1.31389 14.0203 1.15681 14.0203C0.999737 14.0203 0.885498 14.1345 0.885498 14.2916C0.885498 14.4487 0.999737 14.5629 1.15681 14.5629C1.31389 14.5629 1.42813 14.4487 1.42813 14.2916Z" fill="white"/>
<path d="M0.885498 13.1634C0.885498 13.3347 1.01402 13.4918 1.21393 13.4918C1.38529 13.4918 1.54237 13.3633 1.54237 13.1634C1.54237 12.992 1.41385 12.835 1.21393 12.835C1.04258 12.835 0.885498 12.992 0.885498 13.1634" fill="white"/>
<path d="M1.37079 12.3922C1.57071 12.3922 1.72778 12.2209 1.72778 12.0352C1.72778 11.8353 1.55643 11.6782 1.37079 11.6782C1.17087 11.6782 1.01379 11.8496 1.01379 12.0352C1.01379 12.2209 1.17087 12.3922 1.37079 12.3922Z" fill="white"/>
<path d="M1.69952 10.5354C1.48532 10.5354 1.29968 10.721 1.29968 10.9352C1.29968 11.1494 1.48532 11.3351 1.69952 11.3351C1.91371 11.3351 2.09935 11.1494 2.09935 10.9352C2.09935 10.721 1.91371 10.5354 1.69952 10.5354Z" fill="white"/>
<path d="M2.12761 10.3504C2.38465 10.3504 2.58456 10.1505 2.58456 9.89348C2.58456 9.63644 2.38465 9.43652 2.12761 9.43652C1.87057 9.43652 1.67065 9.63644 1.67065 9.89348C1.68493 10.1505 1.88485 10.3504 2.12761 10.3504Z" fill="white"/>
<path d="M2.72721 9.42159C2.99853 9.42159 3.21273 9.20739 3.21273 8.93607C3.21273 8.66475 2.99853 8.45056 2.72721 8.45056C2.4559 8.45056 2.2417 8.66475 2.2417 8.93607C2.2417 9.20739 2.4559 9.42159 2.72721 9.42159Z" fill="white"/>
<path d="M3.98407 8.02261C3.98407 7.72273 3.74131 7.47998 3.44144 7.47998C3.14156 7.47998 2.8988 7.72273 2.8988 8.02261C2.8988 8.32249 3.14156 8.56524 3.44144 8.56524C3.72703 8.56524 3.98407 8.32249 3.98407 8.02261Z" fill="white"/>
<path d="M31.8866 16.6899C31.2869 16.6899 30.7299 16.5757 30.2159 16.3472C29.6875 16.133 29.2306 15.8046 28.845 15.419C28.4594 15.0335 28.1453 14.5765 27.9311 14.0482C27.7169 13.5198 27.5884 12.9629 27.5884 12.3774C27.5884 11.792 27.7026 11.2065 27.9311 10.6781C28.1596 10.1498 28.4594 9.69283 28.845 9.30728C29.2306 8.92172 29.6875 8.59329 30.2159 8.37909C30.7442 8.13633 31.3011 8.03638 31.8866 8.03638C32.4721 8.03638 33.0576 8.15062 33.5859 8.39337C34.1143 8.63613 34.5712 8.95029 34.971 9.3644C35.0567 9.45008 35.1281 9.55003 35.1567 9.69283C35.2138 9.84991 35.1852 9.97843 35.0996 10.1212C34.9996 10.2783 34.8568 10.3354 34.6712 10.364C34.4713 10.364 34.3285 10.3069 34.2142 10.1926C33.9286 9.93558 33.5573 9.70711 33.1432 9.47863C32.7577 9.27871 32.315 9.17876 31.8723 9.17876C31.4296 9.17876 31.0155 9.26444 30.6157 9.43579C30.2301 9.60715 29.8874 9.83564 29.6018 10.1355C29.3162 10.4354 29.0878 10.7781 28.9307 11.1636C28.7593 11.5492 28.6736 11.9776 28.6736 12.4203C28.6736 12.863 28.7593 13.2771 28.9307 13.6769C29.102 14.0767 29.3162 14.4052 29.6018 14.6908C29.8874 14.9764 30.2301 15.2191 30.6157 15.3905C31.0013 15.5618 31.4296 15.6475 31.8723 15.6475C32.315 15.6475 32.772 15.5618 33.1718 15.3762C33.5716 15.2048 33.9143 14.9478 34.2285 14.6336C34.3142 14.5337 34.4284 14.4623 34.5712 14.4337C34.6283 14.4194 34.6569 14.4195 34.6997 14.4195C34.7997 14.4195 34.8996 14.448 34.9853 14.5051C35.1138 14.6194 35.1852 14.7764 35.1852 14.9478C35.1852 15.1192 35.1281 15.2762 35.0282 15.3905C34.6426 15.8332 34.1714 16.1759 33.6287 16.4044C33.0861 16.6043 32.5006 16.7471 31.8723 16.7471" fill="white"/>
<path d="M40.8972 16.6764C40.2975 16.6764 39.7406 16.5622 39.2265 16.3337C38.7124 16.1052 38.2412 15.7911 37.8556 15.4198C37.4701 15.0342 37.1559 14.5773 36.9417 14.0489C36.7275 13.5206 36.599 12.9637 36.599 12.3782C36.599 11.7927 36.7132 11.2215 36.9417 10.7074C37.1702 10.1934 37.4843 9.72213 37.8556 9.33658C38.2412 8.95102 38.6981 8.63686 39.2265 8.40839C39.7548 8.19419 40.3118 8.06567 40.8972 8.06567C41.4827 8.06567 42.0539 8.17991 42.568 8.40839C43.082 8.63686 43.5533 8.95102 43.9388 9.33658C44.3244 9.72213 44.6385 10.1791 44.867 10.7074C45.0812 11.2358 45.2097 11.7927 45.2097 12.3782C45.2097 12.9637 45.0955 13.5348 44.867 14.0489C44.6385 14.563 44.3244 15.0342 43.9388 15.4198C43.5533 15.8053 43.0963 16.1195 42.568 16.3337C42.0396 16.5479 41.4827 16.6764 40.8972 16.6764ZM40.8972 9.16523C40.4546 9.16523 40.0404 9.25091 39.6406 9.42226C39.2408 9.59362 38.9123 9.80781 38.6267 10.0934C38.3411 10.379 38.0984 10.736 37.9556 11.1216C37.7842 11.5071 37.6985 11.9355 37.6985 12.3782C37.6985 12.8209 37.7842 13.235 37.9556 13.6348C38.1269 14.0346 38.3411 14.3631 38.6267 14.6487C38.9123 14.9343 39.255 15.1627 39.6406 15.3198C40.0262 15.4769 40.4546 15.5769 40.8972 15.5769C41.3399 15.5769 41.754 15.4912 42.1538 15.3198C42.5537 15.1485 42.8821 14.9343 43.1677 14.6487C43.4533 14.3631 43.6961 14.0204 43.8674 13.6348C44.0388 13.2492 44.1245 12.8209 44.1245 12.3782C44.1245 11.9355 44.0388 11.5214 43.8674 11.1216C43.6961 10.7217 43.4819 10.3933 43.1677 10.0934C42.8821 9.80781 42.5394 9.56506 42.1538 9.42226C41.7683 9.25091 41.3399 9.16523 40.8972 9.16523Z" fill="white"/>
<path d="M52.8352 16.6907C52.6781 16.6907 52.5496 16.6336 52.4496 16.5193C52.3497 16.4194 52.2783 16.2766 52.2783 16.1338V11.2072C52.2783 10.9216 52.2212 10.6646 52.1069 10.4076C52.007 10.1505 51.8499 9.93632 51.65 9.75068C51.4643 9.56505 51.2216 9.40797 50.9931 9.29373C50.7361 9.19377 50.4648 9.12237 50.1934 9.12237C49.9078 9.12237 49.6365 9.17949 49.3938 9.29373C49.1367 9.39369 48.9225 9.55077 48.7369 9.75068C48.5513 9.93632 48.3942 10.1791 48.2942 10.4076C48.1943 10.6646 48.1229 10.9359 48.1229 11.2072V16.1338C48.1229 16.2908 48.0657 16.4194 47.9515 16.5193C47.8515 16.6193 47.7087 16.6764 47.566 16.6764C47.4232 16.6764 47.2804 16.6193 47.1804 16.505C47.0804 16.4051 47.009 16.2623 47.009 16.1195V11.1929C47.009 10.7503 47.0947 10.3504 47.2661 9.9506C47.4374 9.55077 47.6516 9.22233 47.9372 8.93674C48.2228 8.65114 48.5655 8.40838 48.9511 8.26558C49.3366 8.09422 49.7508 8.00854 50.1934 8.00854C50.6361 8.00854 51.0359 8.09422 51.4358 8.26558C51.8356 8.43694 52.164 8.65114 52.4496 8.93674C52.7352 9.22233 52.978 9.56505 53.1208 9.9506C53.2922 10.3362 53.3778 10.7646 53.3778 11.1929V16.1195C53.3778 16.2766 53.3207 16.4051 53.2208 16.505C53.1208 16.6336 52.978 16.6907 52.8352 16.6907" fill="white"/>
<path d="M58.2761 16.6903C57.8477 16.6903 57.4479 16.6189 57.0766 16.4904C56.7053 16.3619 56.3626 16.1619 56.0913 15.9192C55.8057 15.6764 55.5772 15.3908 55.4201 15.0767C55.263 14.7625 55.1774 14.4055 55.1774 14.02C55.1774 13.8915 55.2345 13.7487 55.3344 13.6487C55.4344 13.5487 55.5772 13.4916 55.7057 13.4916C55.8628 13.4916 55.977 13.5487 56.077 13.6487C56.177 13.7487 56.2341 13.8629 56.2341 14.02C56.2341 14.2342 56.2912 14.4484 56.3912 14.634C56.4911 14.8196 56.6339 14.991 56.8195 15.1481C57.0052 15.2766 57.2051 15.4051 57.4621 15.4908C57.7192 15.5765 57.9905 15.6193 58.2761 15.6193C58.5617 15.6193 58.833 15.5622 59.09 15.4908C59.3471 15.4194 59.5613 15.2909 59.7469 15.1338C59.9325 15.0053 60.0896 14.8339 60.1896 14.6197C60.2895 14.4341 60.3181 14.2342 60.3181 14.0057C60.3038 13.8058 60.2324 13.6201 60.1325 13.4488C60.0182 13.2631 59.8754 13.1061 59.6898 12.9633C59.5184 12.8347 59.3042 12.7062 59.0615 12.6063C58.8187 12.5063 58.5902 12.4349 58.3189 12.4064C57.9477 12.3921 57.5907 12.3064 57.2337 12.1922C56.8909 12.0779 56.5768 11.9208 56.3198 11.7352C56.0484 11.5496 55.8342 11.3354 55.6772 11.0783C55.5058 10.8213 55.4201 10.5214 55.4201 10.2215C55.4201 9.89311 55.5058 9.60751 55.6629 9.33619C55.82 9.06488 56.0342 8.82212 56.2912 8.63648C56.5482 8.43657 56.8624 8.27949 57.2194 8.16525C57.5764 8.05101 57.9477 7.9939 58.3332 7.9939C58.7188 7.9939 59.1186 8.05101 59.447 8.16525C59.804 8.27949 60.1039 8.43657 60.3752 8.63648C60.6465 8.8364 60.8465 9.07916 61.0035 9.33619C61.1606 9.60751 61.2463 9.89311 61.2463 10.2215C61.2463 10.3786 61.1892 10.5071 61.0749 10.6071C60.975 10.7071 60.8322 10.7785 60.6894 10.7785C60.5466 10.7785 60.4038 10.7213 60.3038 10.6071C60.2039 10.5071 60.1467 10.3501 60.1325 10.1787C60.1325 10.0502 60.0753 9.92167 60.0039 9.80743C59.904 9.67891 59.7898 9.56467 59.6184 9.46472C59.447 9.36476 59.2614 9.27908 59.0472 9.20768C58.833 9.13628 58.5902 9.12199 58.3332 9.12199C58.0762 9.12199 57.8477 9.15056 57.6049 9.20768C57.3907 9.27908 57.1765 9.3362 57.0337 9.46472C56.8767 9.56467 56.7481 9.67891 56.6625 9.83598C56.5768 9.9645 56.534 10.1073 56.534 10.2358C56.534 10.3643 56.5911 10.4929 56.691 10.6071C56.8053 10.7356 56.9623 10.8499 57.1337 10.9498C57.3193 11.0498 57.5193 11.1355 57.7477 11.2069C57.9619 11.2783 58.1761 11.3211 58.3618 11.3354C58.7616 11.3925 59.1614 11.4639 59.5327 11.621C59.904 11.778 60.2324 11.9637 60.5037 12.1779C60.7751 12.4206 60.9893 12.692 61.1606 12.9918C61.3177 13.2917 61.4034 13.6487 61.4034 14.0057C61.4034 14.3627 61.3177 14.734 61.1606 15.0624C61.0035 15.3908 60.7751 15.6764 60.4895 15.9049C60.2039 16.1334 59.8754 16.3333 59.5042 16.4618C59.1614 16.6332 58.7616 16.7046 58.3332 16.7046" fill="white"/>
<path d="M63.8734 16.6907C63.7164 16.6907 63.5878 16.6336 63.4879 16.5193C63.3879 16.4194 63.3165 16.2766 63.3165 16.1338V8.56546C63.3165 8.40838 63.3736 8.27987 63.4879 8.17991C63.5878 8.07995 63.7306 8.00854 63.8734 8.00854H68.5001C68.6572 8.00854 68.7857 8.06567 68.8857 8.17991C68.9856 8.27987 69.0427 8.42266 69.0427 8.56546C69.0427 8.70826 68.9856 8.85106 68.8857 8.95102C68.7857 9.05098 68.6429 9.12237 68.5001 9.12237H64.4304V11.7784H67.3149C67.472 11.7784 67.6005 11.8355 67.7004 11.9498C67.8004 12.0497 67.8718 12.1925 67.8718 12.3353C67.8718 12.4781 67.8147 12.6209 67.7004 12.7209C67.6005 12.8208 67.4577 12.878 67.3149 12.878H64.4304V15.5911H68.5001C68.6572 15.5911 68.7857 15.6482 68.8857 15.7625C68.9856 15.8624 69.0427 16.0052 69.0427 16.148C69.0427 16.2908 68.9856 16.4336 68.8857 16.5336C68.7857 16.6336 68.6429 16.705 68.5001 16.705H63.8734V16.6907Z" fill="white"/>
<path d="M76.3541 16.6899C76.197 16.6899 76.0685 16.6328 75.9685 16.5329C75.8685 16.4329 75.7971 16.2901 75.7971 16.1473V11.2208C75.7971 10.9352 75.74 10.6781 75.6258 10.4211C75.5258 10.1641 75.3688 9.94987 75.1688 9.76423C74.9832 9.5786 74.7404 9.42152 74.512 9.30728C74.2549 9.20732 73.9836 9.13592 73.7123 9.13592C73.4267 9.13592 73.1554 9.19304 72.9126 9.30728C72.6556 9.40724 72.4414 9.56432 72.2557 9.76423C72.0701 9.94987 71.913 10.1926 71.8131 10.4211C71.7131 10.6781 71.6417 10.9495 71.6417 11.2208V16.1473C71.6417 16.3044 71.5846 16.4329 71.4704 16.5329C71.3704 16.6328 71.2276 16.6899 71.0848 16.6899C70.942 16.6899 70.7992 16.6328 70.6992 16.5329C70.5993 16.4329 70.5422 16.2901 70.5422 16.1473V11.2208C70.5422 10.7781 70.6279 10.3783 70.7992 9.97843C70.9706 9.5786 71.1848 9.25016 71.4704 8.96457C71.756 8.67897 72.0987 8.43621 72.4842 8.29341C72.8698 8.12206 73.2982 8.03638 73.7266 8.03638C74.155 8.03638 74.5691 8.12206 74.9689 8.29341C75.3402 8.46477 75.6972 8.67897 75.9828 8.96457C76.2684 9.25016 76.5111 9.59288 76.6539 9.97843C76.8253 10.364 76.911 10.7924 76.911 11.2208V16.1473C76.911 16.3044 76.8539 16.4329 76.7539 16.5329C76.6397 16.6328 76.4969 16.6899 76.3541 16.6899" fill="white"/>
<path d="M81.8092 16.6907C81.3808 16.6907 80.981 16.6193 80.6097 16.4908C80.2385 16.3622 79.8957 16.1623 79.6244 15.9196C79.3388 15.6768 79.1103 15.3912 78.9533 15.0771C78.7962 14.7629 78.7105 14.4059 78.7105 14.0203C78.7105 13.8918 78.7676 13.749 78.8676 13.6491C78.9675 13.5491 79.1103 13.492 79.2389 13.492C79.3959 13.492 79.5102 13.5491 79.6101 13.6491C79.7101 13.749 79.7672 13.8918 79.7672 14.0203C79.7672 14.2345 79.8243 14.4487 79.9243 14.6344C80.0243 14.82 80.1671 15.0057 80.3527 15.1485C80.5383 15.3055 80.7525 15.4055 80.9953 15.5054C81.2523 15.5911 81.5236 15.634 81.8092 15.634C82.0948 15.634 82.3661 15.5768 82.6232 15.5054C82.8802 15.434 83.0944 15.3055 83.2801 15.1485C83.4657 15.0199 83.6228 14.82 83.7227 14.6344C83.8227 14.4487 83.8512 14.2488 83.837 14.0203C83.8227 13.8204 83.7513 13.6348 83.6513 13.4634C83.5371 13.2778 83.3943 13.1207 83.2087 12.9779C83.0373 12.8494 82.8231 12.7209 82.5803 12.6209C82.3376 12.521 82.1091 12.4496 81.8378 12.421C81.4665 12.4067 81.1095 12.3211 80.7668 12.2068C80.4241 12.0926 80.1099 11.9355 79.8529 11.7499C79.5816 11.5642 79.3674 11.35 79.2103 11.093C79.0389 10.836 78.9533 10.5361 78.9533 10.2362C78.9533 9.93633 79.0389 9.62217 79.196 9.35085C79.3531 9.07953 79.5673 8.83678 79.8386 8.65114C80.1099 8.45123 80.4098 8.29415 80.7525 8.17991C81.1095 8.06567 81.4808 8.00854 81.8664 8.00854C82.2519 8.00854 82.6517 8.06567 82.9802 8.17991C83.3372 8.29415 83.637 8.45123 83.9084 8.65114C84.1797 8.85106 84.3796 9.09381 84.5367 9.35085C84.6938 9.62217 84.7794 9.92205 84.7794 10.2362C84.7794 10.3933 84.7223 10.5218 84.6081 10.6218C84.5081 10.7217 84.3653 10.7931 84.2225 10.7931C84.0797 10.7931 83.9369 10.736 83.837 10.6218C83.737 10.5218 83.6799 10.3647 83.6799 10.1934C83.6799 10.0648 83.6228 9.93633 83.5514 9.82209C83.4657 9.69357 83.3372 9.57932 83.1658 9.47936C82.9945 9.37941 82.8088 9.29373 82.5946 9.22233C82.3804 9.15093 82.1377 9.13665 81.8806 9.13665C81.6236 9.13665 81.3951 9.16521 81.1524 9.22233C80.9382 9.29373 80.724 9.35085 80.5812 9.47936C80.4241 9.57932 80.2956 9.69356 80.2099 9.85064C80.1242 9.97916 80.0814 10.122 80.0814 10.2505C80.0814 10.379 80.1385 10.5075 80.2385 10.6218C80.3527 10.7503 80.5098 10.8645 80.6811 10.9645C80.8668 11.0644 81.0667 11.1501 81.2952 11.2215C81.4951 11.2929 81.7236 11.3357 81.9092 11.35C82.309 11.4071 82.7089 11.4785 83.0801 11.6356C83.4514 11.7927 83.7798 11.9783 84.0512 12.1925C84.3225 12.4353 84.5367 12.7066 84.6938 13.0065C84.8508 13.3064 84.9365 13.6634 84.9365 14.0203C84.9365 14.3773 84.8508 14.7486 84.6938 15.0771C84.5367 15.4055 84.3082 15.6911 84.0226 15.9196C83.737 16.148 83.4086 16.348 83.0373 16.4765C82.6946 16.6336 82.2947 16.6907 81.8664 16.6907" fill="white"/>
<path d="M90.1484 16.6899C89.9914 16.6899 89.8628 16.6328 89.7629 16.5329C89.6629 16.4329 89.5915 16.2901 89.5915 16.1473V13.3199L86.1644 8.92172C86.0787 8.80748 86.0359 8.66468 86.0501 8.52189C86.0644 8.37909 86.1358 8.25057 86.2501 8.15061C86.35 8.06493 86.4642 8.03638 86.607 8.03638C86.7927 8.05066 86.9355 8.12205 87.0354 8.23629L90.1627 12.2489L93.3471 8.23629C93.4471 8.12205 93.5613 8.05066 93.7184 8.03638H93.7327C93.904 8.03638 94.0183 8.06493 94.1182 8.15061C94.2325 8.25057 94.3039 8.36481 94.3182 8.52189C94.3324 8.67896 94.2896 8.80748 94.2039 8.92172L90.7339 13.3199V16.1473C90.7339 16.3044 90.6768 16.4329 90.5768 16.5329C90.4198 16.6328 90.2912 16.6899 90.1342 16.6899" fill="white"/>
<path d="M98.488 16.6903C98.0596 16.6903 97.6598 16.6189 97.2885 16.4904C96.9172 16.3619 96.5745 16.1619 96.3032 15.9192C96.0176 15.6764 95.7891 15.3908 95.632 15.0767C95.475 14.7625 95.3893 14.4055 95.3893 14.02C95.3893 13.8915 95.4464 13.7487 95.5464 13.6487C95.6463 13.5487 95.7891 13.4916 95.9176 13.4916C96.0461 13.4916 96.1889 13.5487 96.2889 13.6487C96.3889 13.7487 96.446 13.8915 96.446 14.02C96.446 14.2342 96.5031 14.4484 96.6031 14.634C96.703 14.8196 96.8458 14.991 97.0315 15.1481C97.2171 15.2766 97.4313 15.4051 97.6741 15.4908C97.9311 15.5765 98.2024 15.6193 98.488 15.6193C98.7736 15.6193 99.0449 15.5622 99.3019 15.4908C99.559 15.4194 99.7732 15.2909 99.9588 15.1338C100.144 15.0053 100.302 14.8054 100.401 14.6197C100.501 14.4341 100.53 14.2342 100.516 14.0057C100.501 13.8058 100.43 13.6201 100.33 13.4488C100.216 13.2631 100.073 13.1061 99.8874 12.9633C99.7161 12.8347 99.5019 12.7062 99.2591 12.6063C99.0164 12.5063 98.7879 12.4349 98.5166 12.4064C98.1453 12.3921 97.7883 12.3064 97.4313 12.1922C97.0886 12.0779 96.7744 11.9208 96.5174 11.7352C96.2461 11.5496 96.0319 11.3354 95.8748 11.0783C95.7034 10.8213 95.6178 10.5214 95.6178 10.2215C95.6178 9.92167 95.7034 9.60751 95.8605 9.33619C96.0176 9.06488 96.2318 8.82212 96.5031 8.63648C96.7601 8.43657 97.0743 8.27949 97.417 8.16525C97.774 8.05101 98.1453 7.9939 98.5308 7.9939C98.9164 7.9939 99.3162 8.05101 99.6447 8.16525C100.002 8.27949 100.302 8.43657 100.559 8.63648C100.83 8.8364 101.03 9.06488 101.201 9.33619C101.358 9.60751 101.444 9.90739 101.444 10.2215C101.444 10.3786 101.387 10.5071 101.273 10.6071C101.173 10.7071 101.03 10.7785 100.887 10.7785C100.744 10.7785 100.601 10.7213 100.501 10.6071C100.401 10.5071 100.344 10.3501 100.33 10.1787C100.33 10.0502 100.273 9.92167 100.202 9.80743C100.102 9.67891 99.9874 9.56467 99.816 9.46472C99.6447 9.36476 99.459 9.27908 99.2448 9.20768C99.0306 9.13628 98.7879 9.12199 98.5308 9.12199C98.2738 9.12199 98.0453 9.15056 97.8026 9.20768C97.5884 9.27908 97.3742 9.3362 97.2314 9.46472C97.0743 9.56467 96.9458 9.67891 96.8601 9.83598C96.7744 9.9645 96.7316 10.1073 96.7316 10.2358C96.7316 10.3643 96.7887 10.4929 96.8887 10.6071C97.0029 10.7356 97.16 10.8499 97.3313 10.9498C97.517 11.0498 97.7169 11.1355 97.9454 11.2069C98.1738 11.2783 98.3738 11.3211 98.5594 11.3354C98.9592 11.3925 99.3591 11.4639 99.7303 11.621C100.102 11.778 100.43 11.9637 100.701 12.1779C100.973 12.4206 101.187 12.692 101.344 12.9918C101.501 13.2917 101.587 13.6344 101.587 14.0057C101.587 14.377 101.501 14.734 101.344 15.0624C101.187 15.3908 100.958 15.6764 100.673 15.9049C100.387 16.1334 100.059 16.3333 99.6875 16.4618C99.3876 16.6332 98.9735 16.7046 98.5594 16.7046" fill="white"/>
</svg>
