<?xml version="1.0" encoding="UTF-8"?><svg id="Layer_1" xmlns="http://www.w3.org/2000/svg" viewBox="0 0 870 328.32"><defs><style>.cls-1{fill:#fff;}</style></defs><path d="M870,93.46c-.15,.69-.38,1.38-.44,2.08-.42,5.62-2.31,10.74-5.4,15.4-5.17,7.81-12.05,9.13-19.63,3.64-8.74-6.33-14.69-14.56-16.48-25.41-.72-4.36-.79-8.74,.18-13.08,1.95-8.71,7.3-14.66,15.45-17.89,6.64-2.64,12.77-1.02,17.91,3.83,4.66,4.39,6.96,10.02,7.93,16.25,.09,.6,.32,1.18,.48,1.76v13.42Zm-37.94-9c.58,8.65,4.56,16.49,12.44,22.2,1.33,.96,2.93,1.65,4.49,2.18,3.01,1.03,5.84,.45,8.36-1.49,2.26-1.74,3.99-3.93,5.05-6.57,.86-2.14,1.62-4.33,2.28-6.54,1.28-4.25,1.89-8.54,.44-12.92-1.1-3.32-1.68-6.87-3.18-9.99-4.93-10.32-17.46-10.4-23.8-3.33-3.95,4.41-6,9.54-6.08,16.45Z"/><path d="M143.6,19.58c1.52,.83,1.85,2.15,1.84,3.68-.07,8.7-.11,17.41-.19,26.11-.1,11.5-.26,23-.32,34.5-.09,15.33,0,30.67-.18,46-.16,13.89-.37,27.79-.9,41.67-.51,13.41-1.83,26.76-3.63,40.06-1.93,14.25-4.41,28.38-7.77,42.36-2.45,10.21-5.82,20.08-11.07,29.23-.99,1.73-2.06,3.43-3.17,5.08-2.55,3.78-6.18,5.94-10.62,6.77-2.92,.55-5.63-.18-7.85-2.07-1.69-1.43-3.25-3.08-4.61-4.84-3.77-4.85-6.14-10.44-8.25-16.15-3.69-10-5.92-20.37-7.69-30.85-4.41-26.08-5.59-52.37-5.22-78.76,.11-7.83,.15-15.65,.17-23.48,.09-25.72,.19-51.43,.23-77.15,0-4.42,1.68-7.6,5.7-9.69,2.9-1.5,5.57-3.45,8.38-5.13,.83-.5,1.52-1.69,2.7-1.1,1.26,.63,.82,1.99,.84,3.03,.09,3.67,.09,7.35,.07,11.02-.11,16.53-.26,33.06-.34,49.59-.09,18.69-.13,37.38-.19,56.07-.03,8.63,.1,17.25,1.1,25.83,.99,8.5,2.46,16.9,5.74,24.88,.7,1.69,1.5,3.36,2.4,4.95,.58,1.03,1.34,2,2.19,2.82,2.09,1.98,4.59,2.39,7.03,.86,1.58-1,3.02-2.37,4.19-3.84,2.53-3.15,4.04-6.87,5.25-10.69,3.16-9.92,5.21-20.06,6.38-30.41,1.26-11.14,1.27-22.32,1.35-33.49,.22-29.31,.38-58.62,.58-87.93,.06-9.1,.16-18.21,.25-27.31,.05-4.59,1.23-6.16,5.61-7.77,2.92-1.07,5.79-2.29,8.69-3.43,.44-.17,.9-.3,1.32-.45Z"/><path d="M319.89,6.94c2.37,.31,4.43,.45,6.44,.85,9.23,1.88,18.45,3.85,27.67,5.76,7.98,1.65,14.24,5.91,18.9,12.52,5.6,7.96,9.18,16.8,10.96,26.33,2.53,13.56,3.59,27.23,2.36,41-1.21,13.59-3.92,26.84-9.98,39.21-1.2,2.44-1.59,4.99-1.1,7.68,1.74,9.5,3.46,19,5.18,28.5,2.27,12.56,4.55,25.12,6.75,37.7,.32,1.85,.24,3.78,.36,5.83h-19.1c-.55-2.57-1.17-5.11-1.63-7.69-2.92-16.34-5.65-32.71-8.76-49.01-1.46-7.67-3.48-15.24-5.53-22.79-.78-2.89-2.14-5.68-3.6-8.32-2.4-4.35-6.28-5.49-11.32-3.48-.1,2.33-.27,4.79-.28,7.25-.16,21-.28,42-.44,63.01-.05,6.87-.15,13.73-.26,20.6-.04,2.94-.62,3.63-3.56,4.06-3.56,.52-7.13,.97-10.7,1.38-2.36,.27-3.05-.32-3.18-2.7-.08-1.59-.02-3.19-.02-4.79,.03-16.05,.05-32.11,.08-48.16,.04-23,.05-46,.11-69,.07-26.43,.19-52.87,.3-79.3,0-2.05,.2-4.09,.33-6.46Zm17.66,38.46c-.14,1.85-.33,3.27-.33,4.69-.03,5.99,0,11.98,0,17.96,0,1.36,.01,2.71,.05,4.07,.06,2.52,.45,2.97,2.96,3.54,.86,.19,1.72,.34,2.58,.55,6.18,1.52,11.08,4.84,14.34,10.37,1.91,3.23,3.75,6.5,5.63,9.74,.31,.53,.68,1.02,1.06,1.59,2.37-1.59,3.13-3.92,3.71-6.35,1.07-4.52,1.71-9.11,1.75-13.75,.08-8.29-.85-16.38-4.92-23.88-1.66-3.06-4-4.9-7.36-5.5-4.4-.79-8.8-1.59-13.21-2.31-1.95-.32-3.94-.46-6.25-.72Z"/><path d="M285.29,1.98c4.94,.59,9.54,1.09,14.12,1.72,1.9,.26,2.4,.94,2.55,2.88,.1,1.27,.12,2.55,.12,3.83,0,34.26,.06,68.53-.01,102.79-.06,28.8-3.49,57.17-11.27,84.95-2.87,10.27-6.83,20.08-12.4,29.22-2.61,4.28-6.02,7.64-10.53,9.84-4.8,2.34-8.87,1.77-12.82-1.82-1.23-1.12-2.41-2.36-3.36-3.73-1.59-2.29-3.11-4.65-4.42-7.11-3.46-6.54-5.48-13.6-7.27-20.73-3.68-14.66-6.29-29.51-7.3-44.59-.65-9.71-1.05-19.45-1.2-29.19-.2-13.01-.09-26.03-.04-39.05,.11-28.59,.27-57.18,.41-85.77,0-.4,0-.8,.02-1.2,.18-2.49,.68-3.21,3.13-3.34,3.91-.2,7.83-.21,11.75-.17,1.59,.01,2.14,.59,2.39,2.14,.17,1.1,.24,2.22,.23,3.34-.13,33.22-.28,66.44-.4,99.66-.03,8.22-.11,16.45,.12,24.67,.28,10.16,1.51,20.23,4.75,29.93,1.03,3.09,2.31,6.15,3.9,8.98,3.7,6.59,9.71,6.98,14.47,1.1,2.49-3.08,4.23-6.57,5.61-10.25,3.09-8.27,4.86-16.84,5.84-25.6,.96-8.59,.92-17.22,.94-25.84,.05-22.28,.04-44.56,.12-66.85,.04-12.22,.21-24.43,.33-36.65,0-.94,.14-1.88,.24-3.18Z"/><path d="M670.92,107.06c1.86,0,3.45-.12,5.02,.02,9.47,.87,18.94,1.76,28.4,2.74,3.97,.41,7.99,.71,11.86,1.62,11.17,2.62,18.98,9.47,23.81,19.78,3.46,7.38,5.41,15.2,6.05,23.28,1.15,14.42-.55,28.53-5.39,42.2-1.03,2.92-2.42,5.73-3.78,8.53-1.4,2.89-2.02,5.89-1.53,9.06,2.87,18.73,4.5,37.57,4.71,56.51,.14,12.13-.06,24.27-.13,36.4-.01,2.19-.18,2.48-1.54,4.09-1.43-.64-2.97-1.27-4.46-2-3.09-1.5-6.11-3.14-9.23-4.56-2.64-1.21-3.88-3.15-3.91-6-.06-5.83-.1-11.66-.29-17.48-.36-11.09-.62-22.19-1.28-33.26-.88-14.76-2.67-29.41-7.1-43.61-.9-2.89-1.87-5.78-3.06-8.56-2.33-5.43-6.48-7.49-12.67-6.34-.11,1.82-.29,3.7-.33,5.59-.28,11.09-.3,22.2-.85,33.28-.63,12.59-1.68,25.17-2.64,37.74-.41,5.41-1.02,10.81-1.56,16.21-.13,1.27-.28,2.55-.58,3.78-.35,1.43-1.1,1.84-2.48,1.28-4.13-1.7-8.22-3.5-12.34-5.24-1.85-.78-2.35-2.23-2.18-4.08,.32-3.58,.62-7.16,.91-10.74,.57-7.08,1.23-14.16,1.68-21.25,1.19-18.73,1.9-37.48,1.79-56.25-.11-17.25-.83-34.48-2.76-51.63-1.11-9.83-2.66-19.61-4-29.41-.06-.46-.07-.93-.13-1.68Zm52.33,64.16c2.06-1.4,2.69-3.31,3.26-5.22,1.61-5.38,1.61-10.86,.76-16.36-.54-3.49-1.44-6.88-3.17-9.98-2.48-4.44-5.98-7.35-11.33-7.69-5.66-.35-11.3-.94-16.96-1.36-1.06-.08-2.15,.18-3.24,.29-.04,.66-.13,1.06-.09,1.45,.61,5.71,1.23,11.41,1.85,17.12,.17,1.54,1.21,2.16,2.57,2.4,1.49,.27,3.01,.43,4.48,.77,7.9,1.81,13.79,6.41,18.18,13.09,1.18,1.79,2.4,3.56,3.7,5.49Z"/><path d="M419.8,128.97c-.17,1.75-.41,3.17-.42,4.59-.04,8.39-.02,16.77-.02,25.16,0,.4,0,.8,.03,1.2,.14,2.44,.65,3.13,3.04,3.53,4.01,.69,8.05,1.27,12.07,1.9,8.21,1.28,16.42,2.53,24.62,3.86,2.87,.46,3.61,1.29,3.58,4.13-.14,14.21-.35,28.42-.55,42.63-.01,.78-.15,1.56-.26,2.63-1.59-.08-3.09-.1-4.57-.25-12.49-1.21-24.97-2.45-37.46-3.68-4.85-.48-9.7-.95-14.56-1.4-3.57-.33-4.1-.84-4.1-4.43,0-14.06,.02-28.11,.03-42.17,.02-30.11,.11-60.21,.03-90.32-.03-13.89-.39-27.78-.57-41.67-.03-2.53,.09-5.07,.14-7.99,2.02,.51,3.73,.83,5.36,1.37,16.77,5.46,33.54,10.96,50.3,16.45,.61,.2,1.21,.4,1.81,.63,1.5,.58,2.27,1.68,2.34,3.29,.07,1.6,.19,3.19,.24,4.78,.22,6.06,.43,12.13,.63,18.19,.03,.78,0,1.56,0,2.71-2.41-.53-4.52-.9-6.57-1.46-9.93-2.71-19.85-5.49-29.78-8.21-1.9-.52-3.83-.88-6.05-1.38-.14,1.67-.35,2.99-.35,4.32,.03,6.07,.09,12.14,.19,18.2,.05,3.31,.47,3.79,3.7,4.56,9.48,2.24,18.96,4.46,28.45,6.69,4.29,1.01,4.65,1.42,4.7,5.78,.11,9.18,.2,18.36,.27,27.55,.01,1.42-.14,2.85-.24,4.61-1.46-.13-2.79-.14-4.08-.37-8.89-1.56-17.77-3.17-26.66-4.73-1.64-.29-3.3-.44-5.32-.7Z"/><path d="M569.09,104.48c-5.07,.86-9.63,1.63-14.19,2.42-1.48,.25-2.41-.4-3.07-1.69-3.88-7.64-10.33-11.48-18.66-12.5-.71-.09-1.43-.14-2.15-.13-5.15,.07-8.28,2.81-8.79,7.93-.42,4.23,.55,8.28,2.48,12.03,1.35,2.62,3.71,4.15,6.53,4.88,4.32,1.13,8.64,2.31,13,3.26,7.34,1.61,13.26,5.38,17.81,11.31,4.7,6.13,7.43,13.18,9.45,20.54,2.64,9.64,3.24,19.49,2.97,29.43-.37,13.93-2.8,27.44-8.2,40.35-2.08,4.97-4.74,9.59-8.34,13.63-5.91,6.62-13.09,8.45-21.49,5.73-5.81-1.88-10.48-5.39-14.23-10.14-5.17-6.54-8.54-14.02-11.12-21.88-2.7-8.21-4.37-16.66-5.76-25.18-.46-2.79,.2-3.96,2.76-5.14,3.41-1.57,6.83-3.12,10.27-4.6,2.99-1.29,3.55-1.02,4.87,2.05,.6,1.39,1.13,2.82,1.75,4.2,3.56,7.87,12.58,12.67,21.11,11.2,3.44-.59,6.04-2.43,7.6-5.6,4.37-8.89,3.91-17.74-.35-26.51-1-2.07-2.76-3.32-4.94-3.86-4.49-1.12-8.97-2.37-13.52-3.16-6.3-1.09-11.39-4.02-15.36-8.95-3.69-4.59-6.22-9.85-8.48-15.23-5.39-12.82-7.56-26.17-6.23-40.04,.42-4.4,1.64-8.64,3.54-12.62,2.83-5.96,7.63-9.13,14.26-9.2,10.73-.11,20.24,3.41,28.5,10.21,5.55,4.57,10.12,9.96,13.34,16.44,.96,1.93,2.04,3.81,2.9,5.78,.66,1.51,1.08,3.13,1.73,5.05Z"/><path d="M767.58,327.94c-4.5-2.59-8.85-5.1-13.2-7.62-1.66-.96-2.22-2.44-1.95-4.27,.56-3.87,1.17-7.73,1.7-11.6,1.38-10.04,2.85-20.07,4.06-30.13,1.21-10.06,2.28-20.14,3.17-30.24,.71-8.03,1.16-16.09,1.53-24.14,.68-14.92,.8-29.85,.09-44.77-.93-19.57-3.21-38.96-7.42-58.11-.48-2.17-.87-4.36-1.3-6.56,10.42-1.35,20.73-2.42,30.95-4.08,10.14-1.65,20.19-3.9,30.59-5.95,3.53,8.31,5.32,17.21,5.97,26.64-7.4,1.63-14.65,2.59-21.93,3.32-7.3,.73-14.59,1.43-22.18,2.18,.1,2.13,.07,4.12,.3,6.08,.57,4.91,1.24,9.82,1.91,14.72,.51,3.75,1.08,4.21,4.98,4.12,9.67-.21,19.34-.44,29.01-.67,4.91-.12,5.57,.46,5.71,5.33,.35,12.53,.71,25.06,1,37.59,.05,2.2-.21,4.4-.33,6.81-12.76-.95-25.01-3.29-37.74-4.36-.25,1.82-.59,3.51-.69,5.22-.56,10.36-.87,20.74-1.66,31.09-.77,10.1-1.85,20.19-3.11,30.25-1.48,11.87-3.2,23.72-4.99,35.56-1.09,7.17-2.52,14.29-3.81,21.43-.12,.68-.4,1.33-.67,2.19Z"/><path d="M583.17,86.66c5.22,1.51,10.12,2.93,15.02,4.34,1.55,.45,2.07,1.57,2.22,3.05,.42,4.21,.86,8.42,1.31,12.62,2.1,19.39,2.87,38.85,3.51,58.33,.32,9.68,1.25,19.29,4.2,28.58,.99,3.11,2.14,6.18,3.43,9.19,1.43,3.34,3.53,6.26,6.38,8.57,4.83,3.92,9.59,3.57,13.75-1.03,2.45-2.71,4.02-5.93,5.26-9.33,3.24-8.92,4.28-18.16,3.92-27.57-.45-11.65-.8-23.31-1.7-34.93-.84-10.82-2.34-21.58-3.55-32.37-.18-1.58-.33-3.16-.5-4.75,1.64-.69,3.23-.42,4.79-.14,2.91,.52,5.81,1.11,8.71,1.68,2.87,.56,3.82,1.43,4.27,4.36,.64,4.18,1.22,8.37,1.68,12.58,1.16,10.47,2.4,20.94,3.29,31.43,1.2,14.09,1.7,28.22,.6,42.36-1.45,18.6-5.16,36.66-12.97,53.71-1.92,4.2-4.2,8.25-6.56,12.22-1.97,3.32-4.72,6.02-7.88,8.28-3.61,2.58-7.46,3.03-11.58,1.4-3.82-1.52-6.86-4.02-9.27-7.33-4.8-6.59-8.19-13.87-10.77-21.55-4.25-12.66-7.26-25.63-9.55-38.78-2.76-15.85-3.76-31.84-4.14-47.91-.29-12.29-.98-24.57-1.74-36.85-.49-7.96-1.46-15.9-2.13-23.85-.17-1.97-.02-3.97-.02-6.31Z"/><path d="M61.81,65.45c.88,5.72,.31,11.23,.39,16.73,.05,3.27,.01,6.54,.01,9.82,0,.96,.04,1.92-.02,2.87-.15,2.27-1.12,4.13-2.92,5.54-.44,.34-.89,.68-1.34,1.01-11.55,8.3-23.07,16.64-34.67,24.86-3.38,2.4-4.87,5.38-4.69,9.55,.25,6.06,.1,12.13,.15,18.2,.01,1.25,.16,2.51,.28,4.23,1.97-1.07,3.67-1.89,5.25-2.88,8.12-5.1,16.19-10.27,24.31-15.36,1.87-1.18,3.86-2.18,6.16-3.46,.21,2.08,.52,3.73,.53,5.37,.06,11.82,.06,23.64,.09,35.45,0,2.55,0,5.11,.11,7.66,.14,3.08-1.19,5.1-3.96,6.45-9.05,4.4-18.05,8.89-27.07,13.35-.29,.14-.57,.29-.86,.42-3.17,1.47-4.69,3.95-4.59,7.44,.14,4.87,.25,9.74,.38,14.6,.48,17.96,.96,35.91,1.45,53.87,.21,7.66,.45,15.32,.66,22.98,.04,1.34,0,2.68,0,4.3-1.89,.3-3.59,.67-5.31,.83-2.7,.25-5.42,.43-8.13,.5-1.83,.04-2.8-.76-3.25-2.54-.27-1.07-.39-2.2-.42-3.31-.7-22.98-1.48-45.96-2.04-68.94-.45-18.67-.67-37.36-.92-56.04-.24-18.2-.34-36.4-.6-54.61-.05-3.34,1-5.98,3.33-8.37,16.38-16.76,33.56-32.64,52.18-46.91,1.52-1.16,3.11-2.24,4.68-3.34,.18-.13,.43-.15,.84-.28Z"/><path d="M179.16,48.14c-7.55,1.92-14.93,3.79-22.59,5.74-.1-2.28-.26-4.25-.26-6.22,.02-9.35,.08-18.69,.13-28.04,0-.32,0-.64,0-.96,.08-3.19,.51-3.84,3.57-4.82,9.67-3.1,19.48-5.69,29.46-7.53,8.72-1.6,17.51-2.81,26.28-4.11,3.9-.58,4.68,.14,4.73,4.15,.05,3.91,.04,7.83,0,11.74-.05,6.31-.13,12.62-.2,18.93,0,.48,0,.96-.03,1.44-.14,1.84-.57,2.43-2.38,2.75-3.15,.55-6.32,.96-9.48,1.45-2.84,.44-5.69,.83-8.51,1.39-2.19,.43-2.65,.98-2.78,3.23-.15,2.71-.2,5.43-.21,8.14-.09,17.89-.16,35.78-.23,53.68-.16,40.26-.32,80.51-.48,120.77-.02,6.07-.03,12.14-.09,18.21-.01,1.03-.15,2.09-.48,3.06-.24,.7-.74,1.54-1.36,1.85-4.69,2.39-9.58,4.29-15.08,5.68-.15-2.17-.41-4.12-.4-6.07,.02-16.05,.09-32.11,.13-48.16,.02-8.39,.03-16.77,.05-25.16,.04-19.73,.03-39.46,.13-59.19,.1-20.61,.31-41.21,.46-61.82,.02-2.63-.06-5.27-.12-7.91-.01-.62-.14-1.23-.26-2.2Z"/><path class="cls-1" d="M337.55,45.4c2.32,.26,4.3,.4,6.25,.72,4.41,.72,8.81,1.51,13.21,2.31,3.36,.61,5.7,2.44,7.36,5.5,4.07,7.49,5,15.58,4.92,23.88-.05,4.63-.68,9.23-1.75,13.75-.58,2.43-1.34,4.76-3.71,6.35-.38-.56-.75-1.05-1.06-1.59-1.88-3.24-3.73-6.51-5.63-9.74-3.27-5.53-8.16-8.85-14.34-10.37-.85-.21-1.72-.36-2.58-.55-2.51-.57-2.89-1.02-2.96-3.54-.03-1.36-.04-2.71-.05-4.07-.01-5.99-.03-11.98,0-17.96,0-1.42,.2-2.84,.33-4.69Z"/><path d="M836.08,72.68c3.92-1.7,7.7-3.57,11.66-4.99,3.21-1.15,6.43,.39,8.07,3.52,2.04,3.9,3.16,7.99,1.83,12.43-.63,2.12-.1,4.07,1.13,5.9,1.38,2.04,2.68,4.14,4.3,6.67-.44,.24-.88,.42-1.26,.69-2.75,1.99-3.71,1.89-5.73-.78-1.25-1.65-2.32-3.45-3.68-5.01-.97-1.12-2.16-2.16-3.46-2.85-1.7-.9-3.06,.09-2.94,2.01,.08,1.26,.43,2.51,.71,3.75,.39,1.71,.9,3.39,1.23,5.11,.34,1.76-.44,3.16-1.75,3.46-1.22,.28-2.67-.77-3.1-2.34-2.18-7.99-4.35-15.99-6.49-23.99-.28-1.06-.32-2.19-.52-3.57Zm16.09,8.21c0-1.59,.17-2.94-.04-4.23-.26-1.53-1.53-2.49-2.96-2.14-1.76,.43-3.47,1.14-5.1,1.95-1.16,.58-1.16,1.87-.9,2.99,.25,1.07,1.16,1.56,2.16,1.57,2.22,.02,4.43-.09,6.84-.15Z"/><path class="cls-1" d="M852.16,80.89c-2.4,.06-4.62,.17-6.84,.15-1.01,0-1.92-.5-2.16-1.57-.26-1.12-.26-2.41,.9-2.99,1.62-.81,3.34-1.52,5.1-1.95,1.43-.35,2.7,.61,2.96,2.14,.22,1.29,.04,2.64,.04,4.23Z"/></svg>