<svg width="316" height="42" viewBox="0 0 316 42" fill="none" xmlns="http://www.w3.org/2000/svg">
<path d="M30.5498 1.01025L33.3481 14.9457C30.5498 7.16646 29.0387 1.34605 23.5541 1.34605H22.8266C19.0769 1.34605 19.0209 4.53608 19.0209 6.9426V32.3509C19.0209 36.7722 20.2521 40.1861 26.1285 40.1861H8.61131C14.4877 40.1861 15.4951 36.7722 15.4951 32.3509V6.9426C15.4951 4.53608 15.4951 1.34605 11.7454 1.34605H10.794C5.25338 1.34605 3.68634 7.39032 1 14.9457L3.79828 1.01025H30.5498Z" fill="white" stroke="white" stroke-width="0.3" stroke-miterlimit="10"/>
<path d="M65.0813 32.3507V19.5346C65.0813 18.0795 64.5216 17.6318 63.4583 17.6318H47.7319C46.7246 17.6318 46.2209 18.0795 46.2209 19.5346V32.3507C46.2209 36.772 47.4521 40.1859 52.1532 40.1859H36.9866C41.6877 40.1859 42.6951 36.772 42.6951 32.3507V6.94235C42.6951 4.53584 42.6951 1.01001 38.9454 1.01001H49.9706C46.2209 1.01001 46.2209 4.53584 46.2209 6.94235V15.2812C46.2209 16.6244 46.7246 17.184 47.7319 17.184H63.4583C64.5216 17.184 65.0813 16.6244 65.0813 15.2812V6.94235C65.0813 4.53584 65.0813 1.01001 61.3316 1.01001H72.3568C68.6071 1.01001 68.6071 4.53584 68.6071 6.94235V32.3507C68.6071 36.772 69.8383 40.1859 74.5394 40.1859H59.3728C64.0739 40.1859 65.0813 36.772 65.0813 32.3507Z" fill="white" stroke="white" stroke-width="0.3" stroke-miterlimit="10"/>
<path d="M104.256 10.6361C102.186 5.43129 100.115 1.3458 95.8616 1.3458H85.7319L85.8438 9.40484C85.9557 17.0161 87.075 18.4713 91.5523 18.4713H95.6378C98.9397 18.4713 100.171 15.673 101.682 11.9792L99.9471 18.4713C99.8911 18.6391 99.8911 18.7511 99.9471 18.919L101.682 25.411C100.115 21.4934 98.8838 18.807 95.6378 18.807H91.5523C87.4668 18.807 86.0677 22.6687 85.8998 33.0783L85.7878 39.8501H96.869C101.906 39.8501 104.424 33.9737 106.663 27.6496L103.865 40.1859H78.2325C81.3106 40.1859 82.1501 37.8353 82.1501 33.0783C82.1501 24.4596 85.7878 18.6391 91.1045 18.6391C85.7878 18.6391 82.1501 15.7289 82.1501 9.51677C82.1501 5.03953 82.1501 1.01001 78.1765 1.01001H101.85L104.256 10.6361Z" fill="white" stroke="white" stroke-width="0.3" stroke-miterlimit="10"/>
<path d="M166.051 32.6086V7.20029C166.051 6.3608 166.051 5.35342 165.883 4.40201L153.234 20.9118C149.149 27.3479 148.869 31.5453 149.709 34.5115C150.436 37.0299 153.85 40.4438 156.816 40.4438H148.869L126.707 7.42415V31.2095C126.707 36.0225 127.882 40.4438 134.262 40.4438H121.11C125.811 40.4438 126.259 36.0225 126.259 31.2095V6.6966L122.174 1.26794H127.434L145.959 29.6425L165.771 3.84236C165.379 2.38725 164.428 1.26794 162.301 1.26794H173.326C169.576 1.26794 169.576 4.79377 169.576 7.20029V32.6086C169.576 37.0299 170.808 40.4438 175.509 40.4438H160.342C165.043 40.4438 166.051 37.0299 166.051 32.6086Z" fill="white" stroke="white" stroke-width="0.3" stroke-miterlimit="10"/>
<path d="M205.226 10.894C203.155 5.68922 201.085 1.60373 196.831 1.60373H186.702L186.814 9.66277C186.925 17.2741 188.045 18.7292 192.522 18.7292H196.607C199.909 18.7292 201.141 15.9309 202.652 12.2372L200.917 18.7292C200.861 18.8971 200.861 19.009 200.917 19.1769L202.652 25.6689C201.085 21.7513 199.853 19.065 196.607 19.065H192.522C188.437 19.065 187.037 22.9266 186.869 33.3362L186.758 40.108H197.839C202.876 40.108 205.394 34.2316 207.633 27.9075L204.834 40.4438H179.202C182.28 40.4438 183.12 38.0933 183.12 33.3362C183.12 24.7175 186.758 18.8971 192.074 18.8971C186.758 18.8971 183.12 15.9869 183.12 9.7747C183.12 5.29746 183.12 1.26794 179.146 1.26794H202.82L205.226 10.894Z" fill="white" stroke="white" stroke-width="0.3" stroke-miterlimit="10"/>
<path d="M236.008 11.4537C236.008 19.6246 231.643 21.4715 225.487 21.5275C227.278 22.3669 227.446 22.6468 229.684 22.6468L236.456 35.183C238.247 38.485 241.157 40.4438 244.067 40.4438H231.811C234.217 40.4438 234.161 38.7089 232.259 35.0711L225.207 21.5275H223.192C220.282 21.5275 218.491 22.311 218.491 33.3362C218.491 38.8208 220.562 40.4438 226.382 40.4438H211.048C214.126 40.4438 214.965 38.0933 214.965 33.3362C214.965 22.311 216.364 21.3036 222.744 21.3036C216.364 21.3036 214.965 17.9457 214.965 9.7747C214.965 5.29746 214.965 1.26794 210.992 1.26794H227.893C233.77 1.32391 236.008 3.56253 236.008 11.4537ZM223.192 21.0797H224.144C228.677 21.0797 232.259 17.9457 232.259 11.4537C232.259 4.51394 230.356 1.71567 227.557 1.71567H218.491V9.7747C218.491 18.6173 220.282 21.0797 223.192 21.0797Z" fill="white" stroke="white" stroke-width="0.3" stroke-miterlimit="10"/>
<path d="M279.605 26.5087V40.4441L275.911 37.8138V33.4485C268.356 42.9626 254.028 44.1938 246.641 33.0567C238.918 21.4159 242.611 10.9503 250.671 4.57025C257.778 -1.0263 268.971 -0.0748869 276.694 7.64835C276.806 7.76028 276.806 7.87222 276.694 7.98415C276.583 8.09608 276.471 8.04011 276.359 7.92818C269.923 1.49215 258.45 2.83532 252.629 7.64835C246.753 12.5174 240.988 23.7105 246.977 32.7769C253.581 42.7387 271.546 38.1496 275.743 27.1803C276.862 24.2701 270.93 22.5352 264.886 22.0315H287.776C284.809 22.4233 280.444 23.9903 279.605 26.5087Z" fill="white" stroke="white" stroke-width="0.3" stroke-miterlimit="10"/>
<path d="M312.736 10.894C310.666 5.68922 308.595 1.60373 304.341 1.60373H294.212L294.324 9.66277C294.436 17.2741 295.555 18.7292 300.032 18.7292H304.118C307.42 18.7292 308.651 15.9309 310.162 12.2372L308.427 18.7292C308.371 18.8971 308.371 19.009 308.427 19.1769L310.162 25.6689C308.595 21.7513 307.364 19.065 304.118 19.065H300.032C295.947 19.065 294.548 22.9266 294.38 33.3362L294.268 40.108H305.349C310.386 40.108 312.904 34.2316 315.143 27.9075L312.345 40.4438H286.712C289.79 40.4438 290.63 38.0933 290.63 33.3362C290.63 24.7175 294.268 18.8971 299.584 18.8971C294.268 18.8971 290.63 15.9869 290.63 9.7747C290.63 5.29746 290.63 1.26794 286.656 1.26794H310.33L312.736 10.894Z" fill="white" stroke="white" stroke-width="0.3" stroke-miterlimit="10"/>
</svg>
