<svg width="174" height="95" viewBox="0 0 174 95" fill="none" xmlns="http://www.w3.org/2000/svg">
<path d="M26.75 0L29.2593 14.1312C26.75 6.24271 25.3949 0.340511 20.4765 0.340511H19.8241C16.4615 0.340511 16.4113 3.57537 16.4113 6.0157V31.781C16.4113 36.2644 17.5155 39.7263 22.7852 39.7263H7.07647C12.3462 39.7263 13.2495 36.2644 13.2495 31.781V6.0157C13.2495 3.57537 13.2495 0.340511 9.88697 0.340511H9.03378C4.06522 0.340511 2.65998 6.46971 0.250977 14.1312L2.76035 0H26.75Z" fill="white"/>
<path d="M57.7156 31.781V18.7849C57.7156 17.3093 57.2137 16.8553 56.2602 16.8553H42.1575C41.2541 16.8553 40.8024 17.3093 40.8024 18.7849V31.781C40.8024 36.2644 41.9065 39.7263 46.1223 39.7263H32.5215C36.7372 39.7263 37.6406 36.2644 37.6406 31.781V6.0157C37.6406 3.57537 37.6406 0 34.278 0H44.165C40.8024 0 40.8024 3.57537 40.8024 6.0157V14.4717C40.8024 15.8338 41.2541 16.4013 42.1575 16.4013H56.2602C57.2137 16.4013 57.7156 15.8338 57.7156 14.4717V6.0157C57.7156 3.57537 57.7156 0 54.353 0H64.24C60.8774 0 60.8774 3.57537 60.8774 6.0157V31.781C60.8774 36.2644 61.9815 39.7263 66.1973 39.7263H52.5965C56.8122 39.7263 57.7156 36.2644 57.7156 31.781Z" fill="white"/>
<path d="M92.8468 9.76132C90.9899 4.4834 89.133 0.340511 85.3187 0.340511H76.2348L76.3352 8.51278C76.4355 16.231 77.4393 17.7066 81.4543 17.7066H85.118C88.079 17.7066 89.1832 14.869 90.5382 11.1234L88.9824 17.7066C88.9322 17.8768 88.9322 17.9903 88.9824 18.1606L90.5382 24.7438C89.133 20.7712 88.0288 18.0471 85.118 18.0471H81.4543C77.7906 18.0471 76.5359 21.963 76.3853 32.5188L76.285 39.3858H86.2221C90.739 39.3858 92.9974 33.4268 95.0049 27.0139L92.4955 39.7263H69.5097C72.27 39.7263 73.0228 37.3427 73.0228 32.5188C73.0228 23.779 76.285 17.8768 81.0528 17.8768C76.285 17.8768 73.0228 14.9257 73.0228 8.62628C73.0228 4.08613 73.0228 0 69.4595 0H90.6888L92.8468 9.76132Z" fill="white"/>
<path d="M40.3005 85.6946V59.9293C40.3005 59.078 40.3005 58.0565 40.15 57.0917L28.8076 73.8335C25.1439 80.3599 24.893 84.6163 25.6458 87.6242C26.2982 90.178 29.3597 93.6399 32.0196 93.6399H24.893L5.01875 60.1563V84.2758C5.01875 89.1565 6.07268 93.6399 11.7941 93.6399H0C4.21575 93.6399 4.61725 89.1565 4.61725 84.2758V59.4185L0.953562 53.9136H5.67118L22.2832 82.6868L40.0496 56.5242C39.6983 55.0486 38.8451 53.9136 36.938 53.9136H46.8249C43.4624 53.9136 43.4624 57.4889 43.4624 59.9293V85.6946C43.4624 90.178 44.5665 93.6399 48.7822 93.6399H35.1814C39.3972 93.6399 40.3005 90.178 40.3005 85.6946Z" fill="white"/>
<path d="M75.4318 63.6749C73.5749 58.397 71.7179 54.2541 67.9037 54.2541H58.8197L58.9201 62.4264C59.0205 70.1446 60.0242 71.6202 64.0392 71.6202H67.7029C70.664 71.6202 71.7681 68.7826 73.1232 65.0369L71.5674 71.6202C71.5172 71.7904 71.5172 71.9039 71.5674 72.0742L73.1232 78.6574C71.7179 74.6848 70.6138 71.9607 67.7029 71.9607H64.0392C60.3756 71.9607 59.1209 75.8765 58.9703 86.4324L58.8699 93.2994H68.8071C73.3239 93.2994 75.5824 87.3404 77.5899 80.9275L75.0805 93.6399H52.0946C54.8549 93.6399 55.6077 91.2563 55.6077 86.4324C55.6077 77.6926 58.8699 71.7904 63.6377 71.7904C58.8699 71.7904 55.6077 68.8393 55.6077 62.5399C55.6077 57.9997 55.6077 53.9136 52.0444 53.9136H73.2737L75.4318 63.6749Z" fill="white"/>
<path d="M103.035 64.2424C103.035 72.5282 99.1203 74.401 93.5996 74.4577C95.2056 75.309 95.3562 75.5928 97.3637 75.5928L103.436 88.3052C105.042 91.6536 107.652 93.6399 110.262 93.6399H99.2708C101.429 93.6399 101.379 91.8806 99.6723 88.1917L93.3487 74.4577H91.5419C88.9322 74.4577 87.3262 75.2523 87.3262 86.4324C87.3262 91.9941 89.1831 93.6399 94.4026 93.6399H80.6513C83.4116 93.6399 84.1644 91.2563 84.1644 86.4324C84.1644 75.2523 85.4191 74.2307 91.1404 74.2307C85.4191 74.2307 84.1644 70.8256 84.1644 62.5399C84.1644 57.9997 84.1644 53.9136 80.6011 53.9136H95.7577C101.027 53.9703 103.035 56.2404 103.035 64.2424ZM91.5419 74.0037H92.3951C96.4603 74.0037 99.6723 70.8256 99.6723 64.2424C99.6723 57.2052 97.9659 54.3676 95.4566 54.3676H87.3262V62.5399C87.3262 71.5067 88.9322 74.0037 91.5419 74.0037Z" fill="white"/>
<path d="M142.118 79.5092V93.6405L138.806 90.9731V86.5465C132.031 96.1943 119.183 97.4428 112.558 86.1492C105.632 74.3448 108.944 63.7322 116.171 57.2625C122.545 51.5873 132.583 52.5521 139.509 60.3839C139.609 60.4974 139.609 60.6109 139.509 60.7244C139.408 60.8379 139.308 60.7811 139.208 60.6676C133.436 54.1412 123.148 55.5032 117.928 60.3839C112.658 65.3213 107.489 76.6716 112.859 85.8654C118.781 95.9673 134.891 91.3136 138.655 80.1903C139.659 77.2392 134.339 75.4799 128.919 74.9691H149.446C146.786 75.3664 142.871 76.9554 142.118 79.5092Z" fill="white"/>
<path d="M171.842 63.6749C169.985 58.397 168.128 54.2541 164.314 54.2541H155.23L155.33 62.4264C155.431 70.1446 156.434 71.6202 160.449 71.6202H164.113C167.074 71.6202 168.178 68.7826 169.533 65.0369L167.978 71.6202C167.927 71.7904 167.927 71.9039 167.978 72.0742L169.533 78.6574C168.128 74.6848 167.024 71.9607 164.113 71.9607H160.449C156.786 71.9607 155.531 75.8765 155.38 86.4324L155.28 93.2994H165.217C169.734 93.2994 171.993 87.3404 174 80.9275L171.491 93.6399H148.505C151.265 93.6399 152.018 91.2563 152.018 86.4324C152.018 77.6926 155.28 71.7904 160.048 71.7904C155.28 71.7904 152.018 68.8393 152.018 62.5399C152.018 57.9997 152.018 53.9136 148.455 53.9136H169.684L171.842 63.6749Z" fill="white"/>
</svg>
