<svg width="27" height="23" viewBox="0 0 27 23" fill="none" xmlns="http://www.w3.org/2000/svg">
<path d="M25.0207 9.89304H24.3902V6.10433C24.3902 4.55515 23.1291 3.29949 21.5853 3.29949H21.0037L21.0091 1.89164C21.0091 0.847975 20.1612 0 19.1175 0H2.29932C1.04366 0 0.0163072 1.01105 0 2.2667C0 2.27757 0 2.28845 0 2.29932V20.8569C0 21.9006 0.847975 22.7486 1.89164 22.7486H21.5908C23.1399 22.7486 24.3956 21.4875 24.3956 19.9437V16.1496H25.0261C25.8415 16.1496 26.5047 15.4864 26.5047 14.6711V11.3716C26.4992 10.5562 25.8361 9.89304 25.0207 9.89304ZM2.29932 1.30458H19.1175C19.4382 1.30458 19.7046 1.56549 19.7046 1.8862L19.6991 3.29949H2.29932C1.75031 3.29949 1.30458 2.85376 1.30458 2.30475C1.30458 1.75574 1.75031 1.30458 2.29932 1.30458ZM23.0856 19.9383C23.0856 20.7645 22.4115 21.4386 21.5853 21.4386H1.8862C1.56549 21.4386 1.29914 21.1776 1.29914 20.8515V4.37577C1.60354 4.52253 1.94056 4.60407 2.29932 4.60407H21.5853C22.4115 4.60407 23.0856 5.2781 23.0856 6.10433V9.89304H18.6337C17.8183 9.89304 17.1552 10.5562 17.1552 11.3716V14.6711C17.1552 15.4864 17.8183 16.1496 18.6337 16.1496H23.0856V19.9383ZM25.1946 14.6711C25.1946 14.7689 25.1185 14.845 25.0207 14.845H18.6391C18.5413 14.845 18.4652 14.7689 18.4652 14.6711V11.3716C18.4652 11.2792 18.5413 11.1976 18.6391 11.1976H25.0207C25.1131 11.1976 25.1946 11.2737 25.1946 11.3716V14.6711Z" fill="white"/>
</svg>
